<svg width="681" height="711" viewBox="0 0 681 711" fill="none" xmlns="http://www.w3.org/2000/svg">
<circle cx="341" cy="397" r="314" fill="url(#paint0_linear_746_7699)"/>
<g filter="url(#filter0_d_746_7699)">
<ellipse cx="337.554" cy="580.812" rx="158.265" ry="25.2101" fill="white"/>
</g>
<ellipse cx="349.298" cy="74.6016" rx="68.2353" ry="31.6016" fill="#212121"/>
<ellipse cx="348.935" cy="115.527" rx="96.6068" ry="47.4024" fill="#F2B04D"/>
<path d="M348.928 90.1797C381.485 90.1797 410.936 97.681 432.229 109.783C453.538 121.894 466.583 138.547 466.583 156.833C466.583 175.119 453.538 191.772 432.229 203.883C410.936 215.985 381.485 223.486 348.928 223.486C316.371 223.486 286.92 215.985 265.627 203.883C244.319 191.772 231.273 175.119 231.273 156.833C231.274 138.547 244.319 121.894 265.627 109.783C286.92 97.681 316.371 90.1798 348.928 90.1797Z" fill="#212121" stroke="black"/>
<path d="M429.455 590.438C432.878 578.47 422.209 567.773 409.944 570.874L404.747 572.188L383.917 571.434L375.496 570.73C373.253 570.542 371.212 572.205 370.969 574.418L370.497 578.729C370.443 579.225 370.77 579.667 371.262 579.765L428.405 591.08C428.863 591.171 429.326 590.887 429.455 590.438Z" fill="#212121"/>
<path d="M371.282 579.728C370.739 579.628 370.198 579.983 370.074 580.522L369.818 581.63L369.813 581.629L369.129 584.597C369.005 585.135 369.344 585.653 369.887 585.753L383.448 588.252C383.991 588.352 384.532 587.997 384.656 587.459L384.757 587.023L392.324 586.874C392.392 586.873 392.46 586.878 392.527 586.891L427.604 593.355C428.147 593.455 428.687 593.1 428.812 592.562L429.08 591.396C429.204 590.858 428.864 590.341 428.321 590.241L371.282 579.728Z" fill="black"/>
<rect width="59.9973" height="0.658499" transform="matrix(0.983439 0.181247 -0.224551 0.974461 370 580.773)" fill="#9B9596"/>
<path d="M268.872 586.633C266.391 574.435 277.861 564.601 289.848 568.648L294.926 570.363L315.752 571.233L324.201 571.187C326.453 571.175 328.358 572.992 328.427 575.216L328.562 579.551C328.578 580.049 328.218 580.465 327.72 580.524L269.869 587.355C269.405 587.41 268.965 587.091 268.872 586.633Z" fill="#212121"/>
<path d="M327.727 580.498C328.277 580.44 328.788 580.836 328.87 581.382L329.037 582.5L329.043 582.499L329.494 585.512C329.575 586.058 329.196 586.547 328.647 586.605L314.932 588.041C314.383 588.098 313.871 587.702 313.789 587.156L313.725 586.723L306.194 585.985C306.126 585.978 306.057 585.978 305.989 585.985L270.515 589.699C269.965 589.756 269.454 589.36 269.372 588.814L269.195 587.63C269.113 587.084 269.492 586.594 270.041 586.537L327.727 580.498Z" fill="black"/>
<rect width="59.9972" height="0.6585" transform="matrix(-0.994568 0.104118 0.14798 0.988986 328.938 581.648)" fill="#9B9596"/>
<path d="M306.211 454.547H332.069L328.89 569.672C328.86 570.754 327.974 571.617 326.891 571.617H309.443L306.211 454.547Z" fill="#212121"/>
<path d="M366.539 454.547H392.397L389.218 569.672C389.188 570.754 388.302 571.617 387.219 571.617H370.744C370.202 571.617 369.759 571.185 369.744 570.644L366.539 454.547Z" fill="#212121"/>
<path d="M408.703 420.329C410.047 419.16 411.978 417.46 414.328 415.338C419.028 411.095 425.401 405.166 432.091 398.422C438.783 391.677 445.788 384.122 451.755 376.628C457.728 369.127 462.638 361.715 465.167 355.255L465.171 355.246C471.227 340.619 466.932 322.979 460.898 308.718C454.873 294.481 447.175 283.753 446.623 283.034C446.044 282.281 444.686 281.68 442.771 281.464C440.889 281.253 438.584 281.429 436.261 282.104C431.616 283.453 426.977 286.765 425.442 292.843C425.445 292.831 425.428 292.936 425.589 293.247C425.735 293.529 425.979 293.892 426.32 294.342C427.002 295.239 428.01 296.404 429.24 297.839C431.69 300.697 434.964 304.57 438.028 309.312C444.155 318.796 449.475 331.803 445.696 347.208L445.688 347.239L445.677 347.268C442.495 355.554 434.285 368.552 425.672 379.694C421.361 385.271 416.936 390.4 412.97 394.258C410.988 396.186 409.112 397.805 407.417 399.003C405.933 400.052 404.556 400.801 403.344 401.139L407.257 421.577C407.608 421.276 408.096 420.857 408.703 420.329Z" fill="#212121" stroke="#212121"/>
<path d="M290.289 420.806C288.945 419.636 287.014 417.936 284.664 415.815C279.964 411.571 273.591 405.642 266.901 398.898C260.209 392.154 253.204 384.598 247.237 377.104C241.264 369.604 236.354 362.192 233.825 355.731L233.821 355.723C227.765 341.096 232.06 323.455 238.095 309.195C244.119 294.958 251.817 284.23 252.369 283.511C252.948 282.758 254.306 282.156 256.221 281.941C258.103 281.729 260.408 281.906 262.731 282.58C267.376 283.929 272.015 287.242 273.55 293.319C273.547 293.308 273.564 293.412 273.403 293.723C273.257 294.006 273.013 294.369 272.672 294.818C271.99 295.716 270.982 296.88 269.752 298.316C267.302 301.173 264.029 305.047 260.965 309.789C254.837 319.272 249.517 332.28 253.296 347.685L253.304 347.716L253.315 347.745C256.497 356.03 264.707 369.028 273.321 380.171C277.631 385.747 282.056 390.877 286.022 394.735C288.004 396.663 289.88 398.281 291.575 399.48C293.059 400.528 294.436 401.278 295.648 401.616L291.735 422.054C291.384 421.752 290.896 421.334 290.289 420.806Z" fill="#212121" stroke="#212121"/>
<g filter="url(#filter1_i_746_7699)">
<path d="M246.083 243.574C240.201 182.642 288.098 129.898 349.314 129.898C410.529 129.898 458.426 182.642 452.544 243.574L437.71 397.243C433.314 442.773 395.055 477.516 349.314 477.516C303.572 477.516 265.313 442.773 260.918 397.243L246.083 243.574Z" fill="#F2B04D"/>
</g>
<path d="M384.43 295.383C384.264 295.54 384.086 295.697 383.914 295.866C384.092 295.697 384.264 295.54 384.43 295.383Z" fill="#222222"/>
<path d="M384.574 295.25C382.759 302.069 378.958 315.258 376.129 317.853C375.542 318.389 374.712 319.083 373.656 319.849V319.839L374.581 303.646C374.647 303.594 374.718 303.551 374.783 303.499C375.186 303.205 375.578 302.922 375.963 302.627C377.138 301.734 378.241 300.851 379.278 299.969C379.64 299.665 379.996 299.37 380.34 299.066C381.651 297.93 382.842 296.849 383.915 295.86C384.088 295.692 384.265 295.534 384.431 295.377C384.478 295.334 384.526 295.292 384.574 295.25Z" fill="white"/>
<path d="M374.352 303.824C374.435 303.772 374.518 303.708 374.595 303.656L373.67 319.849V319.859C372.045 321.037 369.893 322.412 367.289 323.705L367.93 307.827C368.79 307.375 369.626 306.892 370.438 306.398C370.74 306.219 371.043 306.041 371.334 305.851C371.434 305.788 371.535 305.726 371.636 305.662C372.152 305.336 372.656 305 373.142 304.664C373.267 304.58 373.391 304.495 373.51 304.411C373.794 304.223 374.079 304.023 374.352 303.824Z" fill="white"/>
<path d="M371.641 305.663C372.151 305.337 372.655 305 373.147 304.664C372.661 305 372.156 305.337 371.641 305.663Z" fill="white"/>
<path d="M370.414 306.391C370.716 306.212 371.013 306.033 371.31 305.844C371.019 306.033 370.716 306.212 370.414 306.391Z" fill="white"/>
<path d="M370.69 352.57C370.512 352.823 370.334 353.054 370.156 353.285C370.334 353.042 370.512 352.811 370.69 352.57Z" fill="#222222"/>
<path d="M368.256 355.61C368.22 355.652 368.185 355.694 368.143 355.748C367.734 356.221 367.313 356.693 366.886 357.156C366.786 357.261 366.679 357.365 366.578 357.482C365.351 358.775 364.07 359.972 362.741 361.054C362.729 361.064 362.717 361.064 362.706 361.086C361.751 361.854 360.779 362.557 359.777 363.199C359.522 363.366 359.267 363.525 359.005 363.672C358.75 363.829 358.49 363.976 358.229 364.124C357.968 364.271 357.707 364.408 357.446 364.544C356.645 364.964 355.833 365.332 355.003 365.658C354.238 365.952 353.455 366.215 352.666 366.446C352.613 366.456 352.553 366.477 352.5 366.488C352.216 366.561 351.93 366.635 351.646 366.698C351.415 366.75 351.178 366.804 350.946 366.845C350.016 367.045 349.067 367.182 348.1 367.245C347.798 367.277 347.489 367.287 347.187 367.297C346.885 367.307 346.582 367.319 346.274 367.319C345.409 367.319 344.531 367.277 343.635 367.182C343.161 367.13 342.686 367.056 342.218 366.961C341.993 366.919 341.767 366.867 341.542 366.804C341.311 366.752 341.085 366.688 340.854 366.615C340.629 366.551 340.404 366.477 340.178 366.394C340.042 366.352 339.911 366.3 339.775 366.247C339.597 366.183 339.42 366.109 339.242 366.036C338.714 365.815 338.192 365.563 337.67 365.28C337.498 365.196 337.326 365.091 337.16 364.995C336.988 364.9 336.816 364.796 336.65 364.691C335.974 364.271 335.304 363.808 334.652 363.294C334.486 363.168 334.326 363.041 334.166 362.905C332.873 361.845 331.627 360.615 330.423 359.228C330.317 359.103 330.204 358.976 330.097 358.85C328.123 356.528 326.284 353.806 324.57 350.8C327.209 347.469 331.165 343.76 335.553 343.896C343.41 344.137 346.097 352.103 346.097 352.103C346.097 352.103 354.921 332.968 363.253 339.829C366.556 342.551 368.969 347.531 370.677 352.565C370.499 352.806 370.322 353.037 370.144 353.28C370.114 353.311 370.084 353.353 370.061 353.395C369.652 353.91 369.243 354.435 368.828 354.939C368.635 355.159 368.451 355.39 368.256 355.61Z" fill="#111111"/>
<path d="M368.836 354.943C369.251 354.438 369.66 353.912 370.069 353.398C369.666 353.924 369.257 354.438 368.836 354.943Z" fill="#222222"/>
<path d="M366.586 308.507C366.93 308.339 367.268 308.161 367.6 307.992C367.262 308.171 366.929 308.34 366.586 308.507Z" fill="white"/>
<path d="M366.891 357.174C367.317 356.711 367.739 356.239 368.148 355.766C367.738 356.249 367.317 356.721 366.891 357.174Z" fill="#222222"/>
<path d="M365.312 309.091C365.739 308.902 366.154 308.703 366.569 308.492C366.161 308.703 365.74 308.902 365.312 309.091Z" fill="white"/>
<path d="M362.797 310.184C363.165 310.047 363.532 309.9 363.888 309.742C363.527 309.901 363.165 310.048 362.797 310.184Z" fill="white"/>
<path d="M362.758 361.064C364.086 359.982 365.367 358.784 366.595 357.492C365.367 358.794 364.092 359.992 362.758 361.064Z" fill="#222222"/>
<path d="M361.141 310.787C361.704 310.598 362.25 310.399 362.79 310.178C363.157 310.041 363.519 309.894 363.881 309.736C363.964 309.704 364.041 309.673 364.112 309.641C364.527 309.462 364.93 309.283 365.334 309.094C365.76 308.905 366.182 308.706 366.591 308.495C366.935 308.326 367.267 308.159 367.605 307.98C367.712 307.928 367.818 307.875 367.92 307.812L367.279 323.69C365.21 324.721 362.849 325.708 360.258 326.506L361.141 310.797V310.787Z" fill="white"/>
<path d="M359.781 363.214C360.783 362.573 361.756 361.869 362.71 361.102C361.762 361.869 360.783 362.573 359.781 363.214Z" fill="#222222"/>
<path d="M360.384 311.055C360.087 311.16 359.785 311.254 359.477 311.338C359.785 311.255 360.088 311.16 360.384 311.055Z" fill="#222222"/>
<path d="M358.25 364.139C358.511 363.992 358.772 363.845 359.026 363.688C358.771 363.855 358.511 364.002 358.25 364.139Z" fill="#222222"/>
<path d="M357.109 311.985C357.554 311.879 357.987 311.764 358.42 311.648C357.987 311.774 357.548 311.879 357.109 311.985Z" fill="white"/>
<path d="M357.461 364.561C357.722 364.424 357.983 364.288 358.244 364.141C357.982 364.288 357.722 364.435 357.461 364.561Z" fill="#222222"/>
<path d="M354.594 312.494C354.949 312.442 355.306 312.378 355.661 312.305C355.311 312.378 354.949 312.44 354.594 312.494Z" fill="white"/>
<path d="M353.828 312.622C354.006 312.601 354.184 312.569 354.356 312.539C354.178 312.571 354.006 312.602 353.828 312.622Z" fill="#222222"/>
<path d="M352.688 366.46C353.476 366.229 354.259 365.966 355.024 365.672C354.259 365.976 353.483 366.229 352.688 366.46Z" fill="#222222"/>
<path d="M352.526 312.808C352.965 312.767 353.398 312.703 353.825 312.63C354.003 312.608 354.175 312.576 354.353 312.546C354.424 312.536 354.501 312.524 354.572 312.504C354.927 312.452 355.289 312.388 355.639 312.315C356.137 312.221 356.63 312.116 357.11 311.989C357.548 311.883 357.987 311.778 358.42 311.653C358.776 311.557 359.126 311.463 359.47 311.348C359.779 311.264 360.08 311.169 360.377 311.065C360.632 310.991 360.887 310.908 361.13 310.812V310.823L360.247 326.532C357.81 327.288 355.159 327.877 352.336 328.192L352.526 312.817V312.808H352.526Z" fill="white"/>
<path d="M352.515 312.781C352.058 312.845 351.602 312.887 351.133 312.928C351.602 312.887 352.059 312.833 352.515 312.781Z" fill="white"/>
<path d="M351.664 366.695C351.948 366.632 352.234 366.558 352.518 366.484C352.234 366.558 351.955 366.632 351.664 366.695Z" fill="#222222"/>
<path d="M350.961 366.85C351.192 366.808 351.429 366.756 351.661 366.703C351.429 366.765 351.198 366.808 350.961 366.85Z" fill="#222222"/>
<path d="M348.992 313.055C349.271 313.055 349.55 313.045 349.828 313.023C349.55 313.035 349.271 313.055 348.992 313.055Z" fill="#222222"/>
<path d="M347.195 367.302C347.498 367.292 347.806 367.28 348.108 367.25C347.806 367.28 347.503 367.29 347.195 367.302Z" fill="#222222"/>
<path d="M346.273 367.318C346.582 367.318 346.884 367.308 347.186 367.297C346.885 367.308 346.582 367.318 346.273 367.318Z" fill="#222222"/>
<path d="M346.424 313.065C347.296 313.097 348.15 313.097 348.992 313.065C349.271 313.065 349.549 313.045 349.828 313.033C350.278 313.012 350.724 312.981 351.156 312.95C351.624 312.908 352.081 312.866 352.538 312.802V312.813L352.348 328.187C349.644 328.491 346.78 328.543 343.785 328.25L343.305 312.719C343.34 312.719 343.376 312.729 343.411 312.729C343.589 312.771 343.772 312.802 343.957 312.823C344.223 312.865 344.491 312.907 344.763 312.938C344.9 312.948 345.042 312.97 345.184 312.98C345.35 313 345.516 313.012 345.682 313.022C345.926 313.045 346.175 313.055 346.424 313.065Z" fill="white"/>
<path d="M343.961 312.828C344.227 312.87 344.5 312.912 344.768 312.944C344.495 312.913 344.227 312.871 343.961 312.828Z" fill="#222222"/>
<path d="M343.311 312.708L343.792 328.24C342.274 328.092 340.726 327.851 339.143 327.504C337.6 327.167 336.16 326.757 334.801 326.285L333.953 309.062C334.101 309.146 334.25 309.23 334.398 309.305C334.913 309.599 335.43 309.872 335.946 310.125C336.147 310.23 336.355 310.335 336.557 310.429C337.962 311.102 339.392 311.669 340.838 312.09C341.064 312.174 341.295 312.237 341.521 312.289C341.978 312.415 342.434 312.53 342.896 312.626C343.032 312.655 343.168 312.676 343.311 312.708Z" fill="white"/>
<path d="M343.404 312.727C343.369 312.727 343.333 312.717 343.298 312.717C343.156 312.685 343.019 312.663 342.883 312.633C343.054 312.663 343.226 312.695 343.404 312.727Z" fill="white"/>
<path d="M341.547 366.812C341.772 366.876 341.997 366.928 342.223 366.97C341.997 366.928 341.766 366.875 341.547 366.812Z" fill="#222222"/>
<path d="M340.828 312.086C341.054 312.16 341.279 312.233 341.51 312.285C341.284 312.233 341.053 312.17 340.828 312.086Z" fill="#222222"/>
<path d="M340.172 366.398C340.397 366.482 340.623 366.556 340.848 366.619C340.622 366.556 340.397 366.482 340.172 366.398Z" fill="#222222"/>
<path d="M339.25 366.047C339.428 366.12 339.606 366.194 339.784 366.257C339.606 366.194 339.428 366.12 339.25 366.047Z" fill="#C91C18"/>
<path d="M337.172 365C337.338 365.095 337.51 365.199 337.682 365.284C337.509 365.2 337.344 365.105 337.172 365Z" fill="#C91C18"/>
<path d="M336.648 364.688C336.814 364.793 336.987 364.897 337.158 364.992C336.987 364.898 336.821 364.793 336.648 364.688Z" fill="#C91C18"/>
<path d="M333.939 309.072L334.787 326.295C331.775 325.264 329.207 323.919 327.007 322.428L325.922 303.398C326.29 303.703 326.657 303.997 327.025 304.292C327.256 304.481 327.488 304.66 327.725 304.839C327.962 305.028 328.199 305.217 328.437 305.386C328.674 305.575 328.917 305.754 329.154 305.921C329.635 306.278 330.127 306.625 330.619 306.962C330.885 307.151 331.152 307.33 331.419 307.508C331.864 307.803 332.315 308.097 332.771 308.37C333.056 308.549 333.334 308.716 333.62 308.885C333.726 308.946 333.833 309.008 333.939 309.072Z" fill="white"/>
<path d="M334.172 362.922C334.332 363.059 334.492 363.185 334.658 363.31C334.498 363.185 334.332 363.059 334.172 362.922Z" fill="#C91C18"/>
<path d="M333.953 309.062C334.101 309.146 334.25 309.231 334.398 309.315C334.25 309.241 334.101 309.158 333.953 309.073V309.062Z" fill="#222222"/>
<path d="M333.945 309.046V309.056C333.838 308.993 333.732 308.931 333.625 308.867C333.732 308.931 333.839 308.983 333.945 309.046Z" fill="#222222"/>
<path d="M331.422 307.508C331.866 307.802 332.318 308.085 332.774 308.369C332.318 308.097 331.866 307.802 331.422 307.508Z" fill="#222222"/>
<path d="M330.102 358.852C330.209 358.977 330.321 359.104 330.428 359.23C330.321 359.114 330.214 358.987 330.102 358.852Z" fill="#C91C18"/>
<path d="M329.141 305.914C329.627 306.271 330.113 306.618 330.605 306.955C330.113 306.618 329.621 306.271 329.141 305.914Z" fill="#222222"/>
<path d="M327.742 304.836C327.979 305.025 328.216 305.204 328.454 305.383C328.216 305.214 327.979 305.025 327.742 304.836Z" fill="#222222"/>
<path d="M327.016 304.289C327.247 304.468 327.478 304.657 327.715 304.836C327.478 304.657 327.247 304.478 327.016 304.289Z" fill="#222222"/>
<path d="M325.93 303.392L327.016 322.422C324.579 320.761 322.598 318.912 320.997 317.052V317.042L320.148 298.211C320.416 298.453 320.688 298.716 320.961 298.967C321.002 299.009 321.05 299.062 321.097 299.093C321.507 299.481 321.922 299.871 322.348 300.259C322.775 300.647 323.202 301.037 323.641 301.425C324.388 302.089 325.153 302.741 325.93 303.392Z" fill="white"/>
<path d="M322.336 300.266C322.763 300.654 323.19 301.043 323.629 301.432C323.19 301.043 322.763 300.655 322.336 300.266Z" fill="#222222"/>
<path d="M321.086 299.102C321.495 299.49 321.916 299.879 322.337 300.268C321.911 299.879 321.495 299.491 321.086 299.102Z" fill="#222222"/>
<path d="M320.992 317.057C316.841 312.244 315.199 307.401 314.558 305.793C313.864 304.038 311.706 295.484 310.016 288.602C310.105 288.665 310.199 288.727 310.289 288.801C310.472 288.926 310.662 289.074 310.858 289.242C310.864 289.242 310.87 289.253 310.882 289.264C311.036 289.39 311.196 289.527 311.368 289.674C311.528 289.811 311.694 289.958 311.86 290.105C311.979 290.211 312.091 290.316 312.21 290.431C312.328 290.537 312.453 290.652 312.572 290.768C313.319 291.472 314.131 292.27 315.009 293.143C315.442 293.573 315.887 294.015 316.355 294.478C316.759 294.888 317.173 295.298 317.601 295.718C317.779 295.907 317.963 296.086 318.152 296.265C318.2 296.317 318.253 296.37 318.307 296.422C318.811 296.915 319.332 297.431 319.866 297.946C319.961 298.03 320.056 298.113 320.145 298.209V298.219L320.993 317.049L320.992 317.057Z" fill="white"/>
<path d="M320.148 298.188C320.416 298.44 320.688 298.693 320.961 298.955C320.688 298.703 320.415 298.44 320.148 298.199V298.188Z" fill="#222222"/>
<path d="M319.872 297.938C319.338 297.423 318.816 296.908 318.312 296.414C318.816 296.909 319.338 297.413 319.872 297.938Z" fill="#222222"/>
<path d="M317.586 295.711C317.77 295.89 317.954 296.068 318.138 296.258C317.948 296.079 317.764 295.9 317.586 295.711Z" fill="#222222"/>
<path d="M315.008 293.133C315.441 293.563 315.891 294.005 316.354 294.468C315.886 294.005 315.441 293.563 315.008 293.133Z" fill="#222222"/>
<path d="M312.565 290.774C312.447 290.658 312.322 290.543 312.203 290.438C312.322 290.543 312.44 290.648 312.565 290.774Z" fill="#222222"/>
<path d="M311.867 290.103C311.701 289.956 311.535 289.809 311.375 289.672C311.535 289.809 311.695 289.956 311.867 290.103Z" fill="white"/>
<path d="M310.891 289.258C311.051 289.383 311.211 289.52 311.377 289.668C311.204 289.52 311.045 289.383 310.891 289.258Z" fill="#222222"/>
<path d="M352.337 328.185C355.16 327.87 357.81 327.282 360.248 326.525C362.84 325.727 365.2 324.739 367.269 323.71C369.872 322.418 372.025 321.041 373.65 319.863C374.706 319.096 375.537 318.403 376.123 317.867C378.952 315.273 382.753 302.085 384.568 295.264C387.835 292.248 389.87 290.389 390.629 291.482C392.284 293.867 386.489 331.202 370.68 352.576C368.972 347.542 366.558 342.562 363.255 339.84C354.923 332.978 346.099 352.114 346.099 352.114C346.099 352.114 343.413 344.149 335.556 343.907C331.168 343.77 327.212 347.48 324.573 350.811H324.567C311.509 327.955 306.1 289.285 308.027 288.035C308.454 287.762 309.124 287.993 310.008 288.603C311.698 295.485 313.856 304.039 314.55 305.794C315.191 307.401 316.833 312.246 320.984 317.058C322.585 318.918 324.566 320.767 327.003 322.428C329.203 323.92 331.771 325.265 334.784 326.294C336.142 326.766 337.583 327.176 339.125 327.513C340.708 327.859 342.256 328.101 343.774 328.248C346.769 328.542 349.633 328.49 352.337 328.185Z" fill="#222222"/>
<path d="M323.977 361.891C323.977 361.891 343.481 395.853 368.814 364.234" stroke="white" stroke-width="1.5" stroke-miterlimit="10" stroke-linecap="round" stroke-linejoin="round"/>
<path d="M362.93 217.148C362.93 209.826 368.865 203.891 376.187 203.891H376.868C400.112 203.891 418.954 222.733 418.954 245.977C418.954 259.226 408.214 269.967 394.965 269.967H387.95C374.132 269.967 362.93 258.765 362.93 244.946V217.148Z" fill="white"/>
<ellipse cx="18.3099" cy="18.3089" rx="18.3099" ry="18.3089" transform="matrix(0.975031 0.222068 -0.222096 0.975025 370.133 213.625)" fill="url(#paint1_radial_746_7699)"/>
<ellipse cx="8.06368" cy="8.0632" rx="8.06368" ry="8.0632" transform="matrix(0.975031 0.222068 -0.222096 0.975025 377.859 225.82)" fill="black"/>
<rect x="383.812" y="243.633" width="0.211902" height="10.1706" fill="#212121" fill-opacity="0.49"/>
<rect x="383.812" y="217.352" width="0.211902" height="10.1706" fill="#212121" fill-opacity="0.49"/>
<rect x="375.852" y="235.445" width="0.211888" height="10.1713" transform="rotate(89.9985 375.852 235.445)" fill="#212121" fill-opacity="0.49"/>
<rect x="402.133" y="235.445" width="0.211888" height="10.1713" transform="rotate(89.9985 402.133 235.445)" fill="#212121" fill-opacity="0.49"/>
<rect width="0.211902" height="10.1706" transform="matrix(0.996609 0.0822851 -0.0822959 0.996608 383.164 243.586)" fill="#212121" fill-opacity="0.49"/>
<rect width="0.211902" height="10.1706" transform="matrix(0.996609 0.0822851 -0.0822959 0.996608 385.312 217.391)" fill="#212121" fill-opacity="0.49"/>
<rect width="0.211888" height="10.1713" transform="matrix(-0.0822689 0.99661 -0.996611 -0.0822582 375.906 234.781)" fill="#212121" fill-opacity="0.49"/>
<rect width="0.211888" height="10.1713" transform="matrix(-0.0822689 0.99661 -0.996611 -0.0822582 402.102 236.93)" fill="#212121" fill-opacity="0.49"/>
<rect width="0.211902" height="10.1706" transform="matrix(0.986458 0.164012 -0.164033 0.986455 382.523 243.5)" fill="#212121" fill-opacity="0.49"/>
<rect width="0.211902" height="10.1706" transform="matrix(0.986458 0.164012 -0.164033 0.986455 386.812 217.57)" fill="#212121" fill-opacity="0.49"/>
<rect width="0.211888" height="10.1713" transform="matrix(-0.164007 0.986459 -0.986463 -0.163986 376.023 234.133)" fill="#212121" fill-opacity="0.49"/>
<rect width="0.211888" height="10.1713" transform="matrix(-0.164007 0.986459 -0.986463 -0.163986 401.938 238.422)" fill="#212121" fill-opacity="0.49"/>
<rect width="0.211901" height="10.1707" transform="matrix(0.969617 0.244627 -0.244658 0.969609 381.805 243.344)" fill="#212121" fill-opacity="0.49"/>
<rect width="0.211901" height="10.1707" transform="matrix(0.969617 0.244627 -0.244658 0.969609 388.234 217.852)" fill="#212121" fill-opacity="0.49"/>
<rect width="0.211889" height="10.1712" transform="matrix(-0.244631 0.969616 -0.969624 -0.244601 376.102 233.5)" fill="#212121" fill-opacity="0.49"/>
<rect width="0.211889" height="10.1712" transform="matrix(-0.244631 0.969616 -0.969624 -0.244601 401.602 239.906)" fill="#212121" fill-opacity="0.49"/>
<rect width="0.2119" height="10.1707" transform="matrix(0.946199 0.323584 -0.323622 0.946186 381.203 243.148)" fill="#212121" fill-opacity="0.49"/>
<rect width="0.2119" height="10.1707" transform="matrix(0.946199 0.323584 -0.323622 0.946186 389.719 218.289)" fill="#212121" fill-opacity="0.49"/>
<rect width="0.211889" height="10.1712" transform="matrix(-0.323596 0.946195 -0.946208 -0.323558 376.344 232.867)" fill="#212121" fill-opacity="0.49"/>
<rect width="0.211889" height="10.1712" transform="matrix(-0.323596 0.946195 -0.946208 -0.323558 401.203 241.352)" fill="#212121" fill-opacity="0.49"/>
<rect width="0.2119" height="10.1707" transform="matrix(0.916364 0.400346 -0.40039 0.916345 380.578 242.891)" fill="#212121" fill-opacity="0.49"/>
<rect width="0.2119" height="10.1707" transform="matrix(0.916364 0.400346 -0.40039 0.916345 391.078 218.82)" fill="#212121" fill-opacity="0.49"/>
<rect width="0.21189" height="10.1712" transform="matrix(-0.400365 0.916356 -0.916375 -0.400321 376.539 232.25)" fill="#212121" fill-opacity="0.49"/>
<rect width="0.21189" height="10.1712" transform="matrix(-0.400365 0.916356 -0.916375 -0.400321 400.641 242.758)" fill="#212121" fill-opacity="0.49"/>
<rect width="0.211899" height="10.1708" transform="matrix(0.880313 0.474393 -0.474441 0.880287 380.016 242.625)" fill="#212121" fill-opacity="0.49"/>
<rect width="0.211899" height="10.1708" transform="matrix(0.880313 0.474393 -0.474441 0.880287 392.469 219.492)" fill="#212121" fill-opacity="0.49"/>
<rect width="0.211891" height="10.1711" transform="matrix(-0.474418 0.8803 -0.880326 -0.474369 376.867 231.656)" fill="#212121" fill-opacity="0.49"/>
<rect width="0.211891" height="10.1711" transform="matrix(-0.474418 0.8803 -0.880326 -0.474369 400 244.109)" fill="#212121" fill-opacity="0.49"/>
<rect width="0.211898" height="10.1708" transform="matrix(0.838291 0.545223 -0.545274 0.838258 379.43 242.258)" fill="#212121" fill-opacity="0.49"/>
<rect width="0.211898" height="10.1708" transform="matrix(0.838291 0.545223 -0.545274 0.838258 393.742 220.242)" fill="#212121" fill-opacity="0.49"/>
<rect width="0.211892" height="10.1711" transform="matrix(-0.545251 0.838273 -0.838305 -0.545201 377.188 231.094)" fill="#212121" fill-opacity="0.49"/>
<rect width="0.211892" height="10.1711" transform="matrix(-0.545251 0.838273 -0.838305 -0.545201 399.219 245.406)" fill="#212121" fill-opacity="0.49"/>
<rect width="0.211897" height="10.1709" transform="matrix(0.790582 0.612356 -0.612406 0.790543 378.898 241.875)" fill="#212121" fill-opacity="0.49"/>
<rect width="0.211897" height="10.1709" transform="matrix(0.790582 0.612356 -0.612406 0.790543 395 221.086)" fill="#212121" fill-opacity="0.49"/>
<rect width="0.211893" height="10.171" transform="matrix(-0.612385 0.790559 -0.790598 -0.612335 377.633 230.555)" fill="#212121" fill-opacity="0.49"/>
<rect width="0.211893" height="10.171" transform="matrix(-0.612385 0.790559 -0.790598 -0.612335 398.398 246.633)" fill="#212121" fill-opacity="0.49"/>
<rect width="0.211895" height="10.1709" transform="matrix(0.73751 0.675336 -0.675384 0.737466 378.383 241.414)" fill="#212121" fill-opacity="0.49"/>
<rect width="0.211895" height="10.1709" transform="matrix(0.73751 0.675336 -0.675384 0.737466 396.109 222.047)" fill="#212121" fill-opacity="0.49"/>
<rect width="0.211894" height="10.171" transform="matrix(-0.675364 0.737484 -0.737528 -0.675316 378.031 230.078)" fill="#212121" fill-opacity="0.49"/>
<rect width="0.211894" height="10.171" transform="matrix(-0.675364 0.737484 -0.737528 -0.675316 397.422 247.805)" fill="#212121" fill-opacity="0.49"/>
<rect width="0.211894" height="10.171" transform="matrix(0.679435 0.733735 -0.73378 0.679387 377.898 240.961)" fill="#212121" fill-opacity="0.49"/>
<rect width="0.211894" height="10.171" transform="matrix(0.679435 0.733735 -0.73378 0.679387 397.156 223.102)" fill="#212121" fill-opacity="0.49"/>
<rect width="0.211895" height="10.1709" transform="matrix(-0.733762 0.679407 -0.679455 -0.733717 378.469 229.578)" fill="#212121" fill-opacity="0.49"/>
<rect width="0.211895" height="10.1709" transform="matrix(-0.733762 0.679407 -0.679455 -0.733717 396.328 248.859)" fill="#212121" fill-opacity="0.49"/>
<rect width="0.211893" height="10.171" transform="matrix(0.616751 0.787158 -0.787198 0.6167 377.531 240.438)" fill="#212121" fill-opacity="0.49"/>
<rect width="0.211893" height="10.171" transform="matrix(0.616751 0.787158 -0.787198 0.6167 398.188 224.242)" fill="#212121" fill-opacity="0.49"/>
<rect width="0.211897" height="10.1709" transform="matrix(-0.787181 0.616722 -0.616772 -0.787142 379.062 229.164)" fill="#212121" fill-opacity="0.49"/>
<rect width="0.211897" height="10.1709" transform="matrix(-0.787181 0.616722 -0.616772 -0.787142 395.273 249.844)" fill="#212121" fill-opacity="0.49"/>
<rect width="0.211892" height="10.1711" transform="matrix(0.549882 0.835242 -0.835276 0.549831 377.156 239.906)" fill="#212121" fill-opacity="0.49"/>
<rect width="0.211892" height="10.1711" transform="matrix(0.549882 0.835242 -0.835276 0.549831 399.086 225.469)" fill="#212121" fill-opacity="0.49"/>
<rect width="0.211898" height="10.1708" transform="matrix(-0.835261 0.549854 -0.549904 -0.835228 379.562 228.812)" fill="#212121" fill-opacity="0.49"/>
<rect width="0.211898" height="10.1708" transform="matrix(-0.835261 0.549854 -0.549904 -0.835228 394.031 250.742)" fill="#212121" fill-opacity="0.49"/>
<rect width="0.211891" height="10.1711" transform="matrix(0.479282 0.877661 -0.877687 0.479233 376.758 239.32)" fill="#212121" fill-opacity="0.49"/>
<rect width="0.211891" height="10.1711" transform="matrix(0.479282 0.877661 -0.877687 0.479233 399.828 226.711)" fill="#212121" fill-opacity="0.49"/>
<rect width="0.211899" height="10.1708" transform="matrix(-0.877674 0.479257 -0.479306 -0.877648 380.133 228.453)" fill="#212121" fill-opacity="0.49"/>
<rect width="0.211899" height="10.1708" transform="matrix(-0.877674 0.479257 -0.479306 -0.877648 392.734 251.523)" fill="#212121" fill-opacity="0.49"/>
<rect width="0.21189" height="10.1712" transform="matrix(0.40543 0.914126 -0.914146 0.405386 376.523 238.75)" fill="#212121" fill-opacity="0.49"/>
<rect width="0.21189" height="10.1712" transform="matrix(0.40543 0.914126 -0.914146 0.405386 400.531 228.094)" fill="#212121" fill-opacity="0.49"/>
<rect width="0.2119" height="10.1707" transform="matrix(-0.914135 0.40541 -0.405455 -0.914115 380.75 228.18)" fill="#212121" fill-opacity="0.49"/>
<rect width="0.2119" height="10.1707" transform="matrix(-0.914135 0.40541 -0.405455 -0.914115 391.406 252.188)" fill="#212121" fill-opacity="0.49"/>
<rect width="0.211889" height="10.1712" transform="matrix(0.328828 0.94439 -0.944403 0.328789 376.258 238.07)" fill="#212121" fill-opacity="0.49"/>
<rect width="0.211889" height="10.1712" transform="matrix(0.328828 0.94439 -0.944403 0.328789 401.078 229.43)" fill="#212121" fill-opacity="0.49"/>
<rect width="0.2119" height="10.1707" transform="matrix(-0.944394 0.328815 -0.328853 -0.944381 381.359 227.898)" fill="#212121" fill-opacity="0.49"/>
<rect width="0.2119" height="10.1707" transform="matrix(-0.944394 0.328815 -0.328853 -0.944381 390.023 252.711)" fill="#212121" fill-opacity="0.49"/>
<rect width="0.211889" height="10.1712" transform="matrix(0.249994 0.968247 -0.968255 0.249963 376.055 237.5)" fill="#212121" fill-opacity="0.49"/>
<rect width="0.211889" height="10.1712" transform="matrix(0.249994 0.968247 -0.968255 0.249963 401.508 230.914)" fill="#212121" fill-opacity="0.49"/>
<rect width="0.211901" height="10.1707" transform="matrix(-0.968248 0.249989 -0.25002 -0.96824 381.992 227.734)" fill="#212121" fill-opacity="0.49"/>
<rect width="0.211901" height="10.1707" transform="matrix(-0.968248 0.249989 -0.25002 -0.96824 388.578 253.188)" fill="#212121" fill-opacity="0.49"/>
<rect width="0.211888" height="10.1713" transform="matrix(0.169463 0.985536 -0.98554 0.169442 375.93 236.844)" fill="#212121" fill-opacity="0.49"/>
<rect width="0.211888" height="10.1713" transform="matrix(0.169463 0.985536 -0.98554 0.169442 401.844 232.383)" fill="#212121" fill-opacity="0.49"/>
<rect width="0.211901" height="10.1706" transform="matrix(-0.985535 0.169468 -0.16949 -0.985532 382.602 227.633)" fill="#212121" fill-opacity="0.49"/>
<rect width="0.211901" height="10.1706" transform="matrix(-0.985535 0.169468 -0.16949 -0.985532 387.094 253.523)" fill="#212121" fill-opacity="0.49"/>
<rect width="0.211888" height="10.1713" transform="matrix(0.0877831 0.996139 -0.99614 0.0877717 375.898 236.195)" fill="#212121" fill-opacity="0.49"/>
<rect width="0.211888" height="10.1713" transform="matrix(0.0877831 0.996139 -0.99614 0.0877717 402.055 233.875)" fill="#212121" fill-opacity="0.49"/>
<rect width="0.211902" height="10.1706" transform="matrix(-0.996138 0.0877986 -0.08781 -0.996137 383.281 227.57)" fill="#212121" fill-opacity="0.49"/>
<rect width="0.211902" height="10.1706" transform="matrix(-0.996138 0.0877986 -0.08781 -0.996137 385.625 253.742)" fill="#212121" fill-opacity="0.49"/>
<ellipse cx="379.168" cy="229.668" rx="2.99639" ry="2.9962" fill="white"/>
<ellipse cx="389.419" cy="241.404" rx="1.9976" ry="1.99746" fill="white"/>
<path d="M404.9 199.15C404.225 205.837 396.054 198.257 385.143 197.156C374.232 196.055 364.712 201.849 365.387 195.162C366.062 188.476 375.454 183.947 386.365 185.048C397.276 186.149 405.574 192.463 404.9 199.15Z" fill="#212121"/>
<path d="M330.445 217.148C330.445 209.826 324.51 203.891 317.188 203.891H316.507C293.263 203.891 274.421 222.733 274.421 245.977C274.421 259.226 285.161 269.967 298.41 269.967H305.425C319.243 269.967 330.445 258.765 330.445 244.946V217.148Z" fill="white"/>
<ellipse cx="18.3099" cy="18.3089" rx="18.3099" ry="18.3089" transform="matrix(-0.975031 0.222068 0.222096 0.975025 323.25 213.625)" fill="url(#paint2_radial_746_7699)"/>
<ellipse cx="8.06368" cy="8.0632" rx="8.06368" ry="8.0632" transform="matrix(-0.975031 0.222068 0.222096 0.975025 315.523 225.82)" fill="black"/>
<rect width="0.211902" height="10.1706" transform="matrix(-1 0 0 1 309.562 243.633)" fill="#212121" fill-opacity="0.49"/>
<rect width="0.211902" height="10.1706" transform="matrix(-1 0 0 1 309.562 217.352)" fill="#212121" fill-opacity="0.49"/>
<rect width="0.211888" height="10.1713" transform="matrix(-2.70187e-05 1 1 2.70151e-05 317.461 235.445)" fill="#212121" fill-opacity="0.49"/>
<rect width="0.211888" height="10.1713" transform="matrix(-2.70187e-05 1 1 2.70151e-05 291.227 235.445)" fill="#212121" fill-opacity="0.49"/>
<rect width="0.211902" height="10.1706" transform="matrix(-0.996609 0.0822851 0.0822959 0.996608 310.203 243.617)" fill="#212121" fill-opacity="0.49"/>
<rect width="0.211902" height="10.1706" transform="matrix(-0.996609 0.0822851 0.0822959 0.996608 308.062 217.422)" fill="#212121" fill-opacity="0.49"/>
<rect width="0.211888" height="10.1713" transform="matrix(0.0822689 0.99661 0.996611 -0.0822582 317.469 234.82)" fill="#212121" fill-opacity="0.49"/>
<rect width="0.211888" height="10.1713" transform="matrix(0.0822689 0.99661 0.996611 -0.0822582 291.273 236.961)" fill="#212121" fill-opacity="0.49"/>
<rect width="0.211902" height="10.1706" transform="matrix(-0.986458 0.164012 0.164033 0.986455 310.883 243.469)" fill="#212121" fill-opacity="0.49"/>
<rect width="0.211902" height="10.1706" transform="matrix(-0.986458 0.164012 0.164033 0.986455 306.594 217.562)" fill="#212121" fill-opacity="0.49"/>
<rect width="0.211888" height="10.1713" transform="matrix(0.164007 0.986459 0.986463 -0.163986 317.359 234.148)" fill="#212121" fill-opacity="0.49"/>
<rect width="0.211888" height="10.1713" transform="matrix(0.164007 0.986459 0.986463 -0.163986 291.453 238.438)" fill="#212121" fill-opacity="0.49"/>
<rect width="0.211901" height="10.1707" transform="matrix(-0.969617 0.244627 0.244658 0.969609 311.516 243.344)" fill="#212121" fill-opacity="0.49"/>
<rect width="0.211901" height="10.1707" transform="matrix(-0.969617 0.244627 0.244658 0.969609 305.109 217.875)" fill="#212121" fill-opacity="0.49"/>
<rect width="0.211889" height="10.1712" transform="matrix(0.244631 0.969616 0.969624 -0.244601 317.227 233.523)" fill="#212121" fill-opacity="0.49"/>
<rect width="0.211889" height="10.1712" transform="matrix(0.244631 0.969616 0.969624 -0.244601 291.734 239.93)" fill="#212121" fill-opacity="0.49"/>
<rect width="0.2119" height="10.1707" transform="matrix(-0.946199 0.323584 0.323622 0.946186 312.195 243.172)" fill="#212121" fill-opacity="0.49"/>
<rect width="0.2119" height="10.1707" transform="matrix(-0.946199 0.323584 0.323622 0.946186 303.703 218.289)" fill="#212121" fill-opacity="0.49"/>
<rect width="0.211889" height="10.1712" transform="matrix(0.323596 0.946195 0.946208 -0.323558 317.055 232.867)" fill="#212121" fill-opacity="0.49"/>
<rect width="0.211889" height="10.1712" transform="matrix(0.323596 0.946195 0.946208 -0.323558 292.195 241.352)" fill="#212121" fill-opacity="0.49"/>
<rect width="0.2119" height="10.1707" transform="matrix(-0.916364 0.400346 0.40039 0.916345 312.781 242.906)" fill="#212121" fill-opacity="0.49"/>
<rect width="0.2119" height="10.1707" transform="matrix(-0.916364 0.400346 0.40039 0.916345 302.258 218.812)" fill="#212121" fill-opacity="0.49"/>
<rect width="0.21189" height="10.1712" transform="matrix(0.400365 0.916356 0.916375 -0.400321 316.789 232.273)" fill="#212121" fill-opacity="0.49"/>
<rect width="0.21189" height="10.1712" transform="matrix(0.400365 0.916356 0.916375 -0.400321 292.695 242.773)" fill="#212121" fill-opacity="0.49"/>
<rect width="0.211899" height="10.1708" transform="matrix(-0.880313 0.474393 0.474441 0.880287 313.336 242.633)" fill="#212121" fill-opacity="0.49"/>
<rect width="0.211899" height="10.1708" transform="matrix(-0.880313 0.474393 0.474441 0.880287 300.883 219.5)" fill="#212121" fill-opacity="0.49"/>
<rect width="0.211891" height="10.1711" transform="matrix(0.474418 0.8803 0.880326 -0.474369 316.484 231.688)" fill="#212121" fill-opacity="0.49"/>
<rect width="0.211891" height="10.1711" transform="matrix(0.474418 0.8803 0.880326 -0.474369 293.352 244.141)" fill="#212121" fill-opacity="0.49"/>
<rect width="0.211898" height="10.1708" transform="matrix(-0.838291 0.545223 0.545274 0.838258 313.953 242.281)" fill="#212121" fill-opacity="0.49"/>
<rect width="0.211898" height="10.1708" transform="matrix(-0.838291 0.545223 0.545274 0.838258 299.641 220.242)" fill="#212121" fill-opacity="0.49"/>
<rect width="0.211892" height="10.1711" transform="matrix(0.545251 0.838273 0.838305 -0.545201 316.18 231.055)" fill="#212121" fill-opacity="0.49"/>
<rect width="0.211892" height="10.1711" transform="matrix(0.545251 0.838273 0.838305 -0.545201 294.148 245.383)" fill="#212121" fill-opacity="0.49"/>
<rect width="0.211897" height="10.1709" transform="matrix(-0.790582 0.612356 0.612406 0.790543 314.445 241.891)" fill="#212121" fill-opacity="0.49"/>
<rect width="0.211897" height="10.1709" transform="matrix(-0.790582 0.612356 0.612406 0.790543 298.359 221.117)" fill="#212121" fill-opacity="0.49"/>
<rect width="0.211893" height="10.171" transform="matrix(0.612385 0.790559 0.790598 -0.612335 315.734 230.57)" fill="#212121" fill-opacity="0.49"/>
<rect width="0.211893" height="10.171" transform="matrix(0.612385 0.790559 0.790598 -0.612335 294.969 246.648)" fill="#212121" fill-opacity="0.49"/>
<rect width="0.211895" height="10.1709" transform="matrix(-0.73751 0.675336 0.675384 0.737466 314.977 241.422)" fill="#212121" fill-opacity="0.49"/>
<rect width="0.211895" height="10.1709" transform="matrix(-0.73751 0.675336 0.675384 0.737466 297.25 222.055)" fill="#212121" fill-opacity="0.49"/>
<rect width="0.211894" height="10.171" transform="matrix(0.675364 0.737484 0.737528 -0.675316 315.344 230.023)" fill="#212121" fill-opacity="0.49"/>
<rect width="0.211894" height="10.171" transform="matrix(0.675364 0.737484 0.737528 -0.675316 295.953 247.766)" fill="#212121" fill-opacity="0.49"/>
<rect width="0.211894" height="10.171" transform="matrix(-0.679435 0.733735 0.73378 0.679387 315.477 240.938)" fill="#212121" fill-opacity="0.49"/>
<rect width="0.211894" height="10.171" transform="matrix(-0.679435 0.733735 0.73378 0.679387 296.195 223.078)" fill="#212121" fill-opacity="0.49"/>
<rect width="0.211895" height="10.1709" transform="matrix(0.733762 0.679407 0.679455 -0.733717 314.867 229.578)" fill="#212121" fill-opacity="0.49"/>
<rect width="0.211895" height="10.1709" transform="matrix(0.733762 0.679407 0.679455 -0.733717 297.008 248.859)" fill="#212121" fill-opacity="0.49"/>
<rect width="0.211893" height="10.171" transform="matrix(-0.616751 0.787158 0.787198 0.6167 315.883 240.414)" fill="#212121" fill-opacity="0.49"/>
<rect width="0.211893" height="10.171" transform="matrix(-0.616751 0.787158 0.787198 0.6167 295.219 224.219)" fill="#212121" fill-opacity="0.49"/>
<rect width="0.211897" height="10.1709" transform="matrix(0.787181 0.616722 0.616772 -0.787142 314.359 229.141)" fill="#212121" fill-opacity="0.49"/>
<rect width="0.211897" height="10.1709" transform="matrix(0.787181 0.616722 0.616772 -0.787142 298.148 249.82)" fill="#212121" fill-opacity="0.49"/>
<rect width="0.211892" height="10.1711" transform="matrix(-0.549882 0.835242 0.835276 0.549831 316.203 239.883)" fill="#212121" fill-opacity="0.49"/>
<rect width="0.211892" height="10.1711" transform="matrix(-0.549882 0.835242 0.835276 0.549831 294.273 225.438)" fill="#212121" fill-opacity="0.49"/>
<rect width="0.211898" height="10.1708" transform="matrix(0.835261 0.549854 0.549904 -0.835228 313.797 228.773)" fill="#212121" fill-opacity="0.49"/>
<rect width="0.211898" height="10.1708" transform="matrix(0.835261 0.549854 0.549904 -0.835228 299.328 250.719)" fill="#212121" fill-opacity="0.49"/>
<rect width="0.211891" height="10.1711" transform="matrix(-0.479282 0.877661 0.877687 0.479233 316.578 239.32)" fill="#212121" fill-opacity="0.49"/>
<rect width="0.211891" height="10.1711" transform="matrix(-0.479282 0.877661 0.877687 0.479233 293.516 226.711)" fill="#212121" fill-opacity="0.49"/>
<rect width="0.211899" height="10.1708" transform="matrix(0.877674 0.479257 0.479306 -0.877648 313.211 228.461)" fill="#212121" fill-opacity="0.49"/>
<rect width="0.211899" height="10.1708" transform="matrix(0.877674 0.479257 0.479306 -0.877648 300.602 251.508)" fill="#212121" fill-opacity="0.49"/>
<rect width="0.21189" height="10.1712" transform="matrix(-0.40543 0.914126 0.914146 0.405386 316.883 238.758)" fill="#212121" fill-opacity="0.49"/>
<rect width="0.21189" height="10.1712" transform="matrix(-0.40543 0.914126 0.914146 0.405386 292.828 228.078)" fill="#212121" fill-opacity="0.49"/>
<rect width="0.2119" height="10.1707" transform="matrix(0.914135 0.40541 0.405455 -0.914115 312.617 228.164)" fill="#212121" fill-opacity="0.49"/>
<rect width="0.2119" height="10.1707" transform="matrix(0.914135 0.40541 0.405455 -0.914115 301.961 252.172)" fill="#212121" fill-opacity="0.49"/>
<rect width="0.211889" height="10.1712" transform="matrix(-0.328828 0.94439 0.944403 0.328789 317.078 238.141)" fill="#212121" fill-opacity="0.49"/>
<rect width="0.211889" height="10.1712" transform="matrix(-0.328828 0.94439 0.944403 0.328789 292.258 229.492)" fill="#212121" fill-opacity="0.49"/>
<rect width="0.2119" height="10.1707" transform="matrix(0.944394 0.328815 0.328853 -0.944381 311.977 227.93)" fill="#212121" fill-opacity="0.49"/>
<rect width="0.2119" height="10.1707" transform="matrix(0.944394 0.328815 0.328853 -0.944381 303.328 252.75)" fill="#212121" fill-opacity="0.49"/>
<rect width="0.211889" height="10.1712" transform="matrix(-0.249994 0.968247 0.968255 0.249963 317.297 237.484)" fill="#212121" fill-opacity="0.49"/>
<rect width="0.211889" height="10.1712" transform="matrix(-0.249994 0.968247 0.968255 0.249963 291.867 230.914)" fill="#212121" fill-opacity="0.49"/>
<rect width="0.211901" height="10.1707" transform="matrix(0.968248 0.249989 0.25002 -0.96824 311.383 227.734)" fill="#212121" fill-opacity="0.49"/>
<rect width="0.211901" height="10.1707" transform="matrix(0.968248 0.249989 0.25002 -0.96824 304.797 253.188)" fill="#212121" fill-opacity="0.49"/>
<rect width="0.211888" height="10.1713" transform="matrix(-0.169463 0.985536 0.98554 0.169442 317.43 236.844)" fill="#212121" fill-opacity="0.49"/>
<rect width="0.211888" height="10.1713" transform="matrix(-0.169463 0.985536 0.98554 0.169442 291.539 232.383)" fill="#212121" fill-opacity="0.49"/>
<rect width="0.211901" height="10.1706" transform="matrix(0.985535 0.169468 0.16949 -0.985532 310.727 227.609)" fill="#212121" fill-opacity="0.49"/>
<rect width="0.211901" height="10.1706" transform="matrix(0.985535 0.169468 0.16949 -0.985532 306.266 253.5)" fill="#212121" fill-opacity="0.49"/>
<rect width="0.211888" height="10.1713" transform="matrix(-0.0877831 0.996139 0.99614 0.0877717 317.492 236.188)" fill="#212121" fill-opacity="0.49"/>
<rect width="0.211888" height="10.1713" transform="matrix(-0.0877831 0.996139 0.99614 0.0877717 291.32 233.867)" fill="#212121" fill-opacity="0.49"/>
<rect width="0.211902" height="10.1706" transform="matrix(0.996138 0.0877986 0.08781 -0.996137 310.078 227.57)" fill="#212121" fill-opacity="0.49"/>
<rect width="0.211902" height="10.1706" transform="matrix(0.996138 0.0877986 0.08781 -0.996137 307.758 253.742)" fill="#212121" fill-opacity="0.49"/>
<ellipse cx="2.99639" cy="2.9962" rx="2.99639" ry="2.9962" transform="matrix(-1 0 0 1 317.188 226.672)" fill="white"/>
<ellipse cx="1.9976" cy="1.99746" rx="1.9976" ry="1.99746" transform="matrix(-1 0 0 1 305.961 239.406)" fill="white"/>
<path d="M332.379 195.95C332.934 202.648 323.519 196.684 312.59 197.59C301.661 198.495 293.357 205.927 292.802 199.229C292.247 192.531 300.657 186.368 311.586 185.462C322.515 184.557 331.824 189.253 332.379 195.95Z" fill="#212121"/>
<path d="M347.281 500.477V519.15" stroke="#9B9596" stroke-width="3" stroke-dasharray="2 2"/>
<path d="M381.001 402.666L403.227 382.885C407.552 379.035 412.203 375.569 417.128 372.524L441.354 357.549L440.525 370.143L417.395 384.56C410.268 389.002 403.627 394.18 397.581 400.009L380.063 416.898L381.001 402.666Z" fill="#212121"/>
<path d="M315.852 411.732L288.256 384.991L257.38 360.642L258.852 373.858L285.295 394.555L309.332 418.765L315.852 411.732Z" fill="#212121"/>
<path d="M382.18 414.324H436.165V446.625L436.158 447.562C435.656 487.193 403.374 519.165 363.625 519.165H335.603C295.54 519.165 263.062 454.387 263.062 414.324H308.888V388.086H382.18V414.324Z" fill="#212121"/>
<path d="M292.483 424.367V424.905H292.936V425.867H293.983V425.982H292.483V426.521C292.483 426.832 292.477 427.142 292.465 427.45L293.961 427.508C293.935 428.171 293.885 428.827 293.809 429.476L292.321 429.303C292.249 429.921 292.152 430.533 292.033 431.136L293.503 431.426C293.374 432.075 293.221 432.715 293.044 433.346L291.602 432.94C291.433 433.538 291.241 434.126 291.028 434.704L292.435 435.223C292.206 435.843 291.953 436.451 291.678 437.047L290.317 436.419C290.057 436.982 289.776 437.533 289.474 438.071L290.779 438.805C290.457 439.38 290.113 439.941 289.747 440.487L288.502 439.653C288.157 440.168 287.792 440.67 287.409 441.155L288.586 442.083C288.178 442.6 287.749 443.1 287.303 443.583L286.203 442.566C285.783 443.021 285.344 443.459 284.89 443.88L285.907 444.979C285.424 445.426 284.924 445.855 284.407 446.263L283.479 445.086C282.993 445.469 282.492 445.834 281.978 446.179L282.811 447.424C282.265 447.789 281.704 448.133 281.129 448.456L280.396 447.15C279.857 447.453 279.305 447.734 278.742 447.994L279.37 449.354C278.774 449.629 278.166 449.882 277.546 450.111L277.028 448.705C276.451 448.918 275.862 449.109 275.264 449.277L275.669 450.721C275.039 450.898 274.398 451.05 273.749 451.179L273.459 449.71C272.856 449.829 272.245 449.926 271.626 449.998L271.8 451.485C271.318 451.542 270.833 451.584 270.344 451.613V450.685H269.795L269.774 450.142C269.466 450.154 269.155 450.159 268.844 450.159V448.735H270.344V446.786H268.844V444.837H270.344V442.887H268.844V440.938H270.344V438.988H268.844V437.039H270.344V435.089H268.844V433.14H270.344V431.19H268.844V429.241H270.344V427.291H268.844V425.867H269.892V425.342H270.344V424.367H271.986V425.867H274.081V424.367H276.176V425.867H278.271V424.367H280.366V425.867H282.461V424.367H284.556V425.867H286.65V424.367H288.746V425.867H290.841V424.367H292.483Z" fill="#212121" stroke="#9B9596" stroke-width="3" stroke-dasharray="2 2"/>
<path d="M367.182 403.531V404.631H367.686V405.031H368.682V406.83H367.182V409.029H368.682V411.229H367.182V413.429H368.682V415.628H367.182V417.827H368.682V420.026H367.182V421.126C367.182 421.425 367.175 421.723 367.162 422.019L368.659 422.082C368.632 422.724 368.577 423.359 368.495 423.986L367.009 423.793C366.931 424.386 366.829 424.971 366.702 425.547L368.164 425.869C368.026 426.495 367.862 427.111 367.672 427.715L366.242 427.265C366.063 427.833 365.86 428.392 365.634 428.938L367.018 429.511C366.772 430.102 366.502 430.68 366.208 431.243L364.88 430.55C364.605 431.077 364.307 431.591 363.988 432.091L365.252 432.897C364.909 433.435 364.541 433.956 364.153 434.461L362.966 433.549C362.604 434.02 362.221 434.476 361.82 434.913L362.925 435.926C362.494 436.395 362.043 436.846 361.573 437.276L360.561 436.172C360.123 436.573 359.669 436.956 359.197 437.318L360.109 438.505C359.605 438.893 359.084 439.261 358.546 439.604L357.739 438.341C357.24 438.66 356.726 438.957 356.198 439.232L356.891 440.561C356.327 440.854 355.75 441.124 355.159 441.369L354.586 439.985C354.04 440.212 353.482 440.415 352.913 440.594L353.363 442.023C352.759 442.214 352.143 442.378 351.517 442.517L351.194 441.054C350.619 441.181 350.034 441.283 349.441 441.36L349.635 442.847C349.008 442.928 348.372 442.983 347.729 443.011L347.666 441.515C347.37 441.527 347.073 441.533 346.774 441.533C346.475 441.533 346.178 441.527 345.882 441.515L345.817 443.011C345.175 442.983 344.54 442.928 343.913 442.847L344.107 441.36C343.515 441.283 342.93 441.181 342.354 441.054L342.03 442.517C341.405 442.378 340.789 442.214 340.185 442.023L340.636 440.594C340.067 440.415 339.509 440.212 338.963 439.985L338.389 441.369C337.798 441.124 337.22 440.855 336.656 440.561L337.351 439.232C336.823 438.957 336.309 438.66 335.81 438.341L335.002 439.604C334.464 439.26 333.943 438.893 333.438 438.505L334.352 437.318C333.88 436.956 333.425 436.573 332.987 436.172L331.975 437.276C331.505 436.846 331.054 436.395 330.623 435.926L331.729 434.913C331.327 434.476 330.945 434.02 330.583 433.549L329.395 434.461C329.007 433.956 328.639 433.435 328.296 432.897L329.56 432.091C329.241 431.592 328.943 431.077 328.668 430.55L327.34 431.243C327.046 430.68 326.775 430.102 326.53 429.511L327.915 428.938C327.689 428.392 327.486 427.833 327.307 427.265L325.876 427.715C325.686 427.11 325.521 426.495 325.383 425.869L326.847 425.547C326.72 424.971 326.617 424.386 326.54 423.793L325.053 423.986C324.971 423.359 324.916 422.724 324.889 422.082L326.387 422.019C326.374 421.723 326.367 421.425 326.367 421.126V420.026H324.867V417.827H326.367V415.628H324.867V413.429H326.367V411.229H324.867V409.029H326.367V406.83H324.867V405.031H325.863V404.631H326.367V403.531H327.854V405.031H329.846V403.531H331.838V405.031H333.829V403.531H335.82V405.031H337.812V403.531H339.804V405.031H341.795V403.531H343.787V405.031H345.778V403.531H347.771V405.031H349.762V403.531H351.753V405.031H353.745V403.531H355.736V405.031H357.728V403.531H359.72V405.031H361.711V403.531H363.702V405.031H365.694V403.531H367.182Z" fill="#212121" stroke="#9B9596" stroke-width="3" stroke-dasharray="2 2"/>
<path d="M408.962 424.367V424.905H408.51V425.867H407.462V425.982H408.962V426.521C408.962 426.832 408.969 427.142 408.98 427.45L407.484 427.508C407.51 428.171 407.561 428.827 407.637 429.476L409.124 429.303C409.197 429.921 409.293 430.533 409.412 431.136L407.942 431.426C408.071 432.075 408.224 432.715 408.401 433.346L409.844 432.94C410.012 433.538 410.204 434.126 410.417 434.704L409.011 435.223C409.24 435.843 409.492 436.451 409.768 437.047L411.128 436.419C411.388 436.982 411.67 437.533 411.972 438.071L410.666 438.805C410.989 439.38 411.333 439.941 411.698 440.487L412.943 439.653C413.288 440.168 413.653 440.67 414.036 441.155L412.859 442.083C413.267 442.6 413.696 443.1 414.143 443.583L415.242 442.566C415.663 443.021 416.101 443.459 416.556 443.88L415.538 444.979C416.021 445.426 416.521 445.855 417.038 446.263L417.967 445.086C418.452 445.469 418.953 445.834 419.468 446.179L418.635 447.424C419.181 447.789 419.742 448.133 420.316 448.456L421.05 447.15C421.588 447.453 422.14 447.734 422.703 447.994L422.075 449.354C422.671 449.629 423.279 449.882 423.899 450.111L424.417 448.705C424.995 448.918 425.584 449.109 426.182 449.277L425.776 450.721C426.407 450.898 427.047 451.05 427.696 451.179L427.986 449.71C428.589 449.829 429.201 449.926 429.819 449.998L429.646 451.485C430.127 451.542 430.612 451.584 431.102 451.613V450.685H431.65L431.671 450.142C431.979 450.154 432.29 450.159 432.602 450.159V448.735H431.102V446.786H432.602V444.837H431.102V442.887H432.602V440.938H431.102V438.988H432.602V437.039H431.102V435.089H432.602V433.14H431.102V431.19H432.602V429.241H431.102V427.291H432.602V425.867H431.554V425.342H431.102V424.367H429.459V425.867H427.364V424.367H425.27V425.867H423.175V424.367H421.079V425.867H418.984V424.367H416.89V425.867H414.795V424.367H412.699V425.867H410.604V424.367H408.962Z" fill="#212121" stroke="#9B9596" stroke-width="3" stroke-dasharray="2 2"/>
<path d="M258.078 362.242L287.383 385.225L312.048 411.58L306.231 415.097L286.09 393.485L259.158 373.016" stroke="#9B9596" stroke-dasharray="2 2"/>
<path d="M363.141 430.249C363.165 430.273 363.165 430.297 363.165 430.321C363.141 430.345 363.117 430.345 363.093 430.345C361.677 429.577 360.213 428.977 358.749 428.329C357.285 427.729 355.797 427.105 354.333 426.529C351.357 425.353 348.381 424.249 345.357 423.241C345.021 423.121 344.685 423.001 344.373 422.905C343.917 423.049 343.461 423.169 342.981 423.289C342.957 423.817 342.933 424.345 342.909 424.873C342.909 424.897 342.885 424.921 342.837 424.921C342.813 424.921 342.813 424.897 342.789 424.873C342.717 424.393 342.669 423.889 342.621 423.385C341.949 423.529 341.277 423.673 340.581 423.745C340.173 423.793 339.765 423.817 339.333 423.793C338.901 423.793 338.469 423.721 338.085 423.601C337.677 423.505 337.245 423.361 336.861 423.121C336.669 423.001 336.477 422.833 336.333 422.617C336.165 422.377 336.093 422.041 336.189 421.777C336.333 421.201 336.813 420.889 337.269 420.745C337.389 420.721 337.509 420.697 337.629 420.697L337.797 420.673H337.965C338.181 420.697 338.373 420.721 338.589 420.745C339.405 420.841 340.197 421.057 340.965 421.249C341.493 421.417 342.021 421.561 342.549 421.729C342.525 421.033 342.549 420.313 342.597 419.617C342.645 418.729 342.669 417.817 342.933 416.977C343.173 416.113 343.509 415.273 344.085 414.553C344.109 414.529 344.133 414.529 344.157 414.553C344.181 414.553 344.181 414.577 344.181 414.577V414.601C344.181 415.489 344.061 416.353 343.965 417.193C343.845 418.057 343.581 418.873 343.437 419.713C343.293 420.433 343.197 421.177 343.125 421.921C343.389 421.993 343.653 422.089 343.917 422.185C344.301 422.065 344.661 421.945 345.021 421.801C346.509 421.249 347.949 420.625 349.341 419.881C350.733 419.161 352.077 418.345 353.301 417.385C353.901 416.905 354.477 416.377 354.957 415.825C355.413 415.273 355.797 414.601 355.773 414.049C355.773 413.497 355.365 413.065 354.693 412.825C354.045 412.585 353.277 412.513 352.509 412.465C350.973 412.417 349.413 412.561 347.853 412.777C346.269 412.993 344.733 413.281 343.173 413.593C341.613 413.905 340.053 414.265 338.517 414.625C336.957 415.009 335.421 415.417 333.885 415.825C333.837 415.825 333.813 415.801 333.813 415.777C333.813 415.753 333.813 415.729 333.837 415.705C336.837 414.601 339.885 413.665 343.005 412.873C344.541 412.465 346.125 412.153 347.709 411.865C349.293 411.601 350.901 411.409 352.557 411.409C353.373 411.457 354.213 411.505 355.077 411.817C355.485 411.985 355.941 412.201 356.301 412.585C356.373 412.681 356.469 412.777 356.541 412.897C356.565 412.945 356.589 412.993 356.637 413.065C356.661 413.137 356.685 413.185 356.709 413.257C356.805 413.497 356.877 413.761 356.877 414.025C356.901 414.553 356.733 415.033 356.517 415.441C356.301 415.825 356.061 416.185 355.773 416.521C355.221 417.169 354.573 417.697 353.925 418.201C352.629 419.185 351.213 420.001 349.773 420.721C348.333 421.441 346.821 422.065 345.309 422.593C345.285 422.617 345.261 422.617 345.213 422.617C345.333 422.665 345.429 422.689 345.525 422.737C348.549 423.817 351.501 424.993 354.453 426.241C355.917 426.865 357.381 427.489 358.845 428.137C360.285 428.809 361.749 429.457 363.141 430.249ZM340.485 422.977C341.181 422.905 341.877 422.737 342.573 422.569C342.573 422.497 342.549 422.425 342.549 422.329C341.973 422.161 341.397 421.993 340.797 421.849C340.029 421.657 339.261 421.465 338.517 421.369C338.325 421.345 338.133 421.345 337.941 421.345H337.821H337.677C337.605 421.345 337.533 421.369 337.461 421.393C337.149 421.489 336.885 421.705 336.837 421.921C336.789 422.113 336.957 422.353 337.245 422.521C337.533 422.713 337.893 422.809 338.253 422.905C338.973 423.097 339.717 423.073 340.485 422.977Z" fill="white"/>
<path d="M441.222 358.648L409.841 378.435L376.578 407.487L378.733 415.388L409.259 388.095L440.145 369.063" stroke="#9B9596" stroke-dasharray="2 2"/>
<path d="M374.453 391.32V417.894H436.224" stroke="#9B9596" stroke-dasharray="2 2"/>
<path d="M310.516 391.148H380.188" stroke="#9B9596" stroke-width="3" stroke-dasharray="2 2"/>
<path d="M312.672 390.625V417.917H265.984" stroke="#9B9596" stroke-dasharray="2 2"/>
<ellipse cx="310.871" cy="410.363" rx="5.387" ry="5.38664" fill="url(#paint3_radial_746_7699)"/>
<ellipse cx="379.106" cy="411.09" rx="5.387" ry="5.38664" fill="url(#paint4_radial_746_7699)"/>
<path d="M309.832 409.069C309.79 408.997 309.721 408.944 309.641 408.923C309.56 408.901 309.474 408.912 309.402 408.954C309.329 408.996 309.277 409.064 309.255 409.145C309.233 409.226 309.245 409.312 309.286 409.384L309.916 410.475L308.825 411.104C308.753 411.146 308.7 411.215 308.679 411.295C308.657 411.376 308.668 411.462 308.71 411.534C308.752 411.607 308.821 411.659 308.901 411.681C308.982 411.703 309.068 411.691 309.14 411.65L310.231 411.02L310.861 412.111C310.902 412.183 310.971 412.236 311.052 412.257C311.132 412.279 311.218 412.267 311.291 412.226C311.363 412.184 311.416 412.115 311.437 412.035C311.459 411.954 311.448 411.868 311.406 411.796L310.776 410.705L311.867 410.075C311.939 410.034 311.992 409.965 312.014 409.884C312.035 409.804 312.024 409.718 311.982 409.645C311.94 409.573 311.872 409.52 311.791 409.499C311.71 409.477 311.624 409.488 311.552 409.53L310.461 410.16L309.832 409.069Z" fill="#9B9596"/>
<path d="M378.808 409.765C378.767 409.692 378.698 409.639 378.617 409.618C378.536 409.596 378.45 409.608 378.378 409.649C378.306 409.691 378.253 409.76 378.231 409.84C378.21 409.921 378.221 410.007 378.263 410.079L378.893 411.17L377.802 411.8C377.73 411.841 377.677 411.91 377.655 411.991C377.634 412.071 377.645 412.157 377.687 412.23C377.728 412.302 377.797 412.355 377.878 412.376C377.959 412.398 378.045 412.387 378.117 412.345L379.207 411.715L379.837 412.806C379.879 412.878 379.948 412.931 380.028 412.952C380.109 412.974 380.195 412.963 380.267 412.921C380.34 412.879 380.392 412.811 380.414 412.73C380.436 412.649 380.424 412.563 380.383 412.491L379.753 411.4L380.843 410.771C380.916 410.729 380.969 410.66 380.99 410.58C381.012 410.499 381 410.413 380.959 410.341C380.917 410.268 380.848 410.216 380.768 410.194C380.687 410.172 380.601 410.184 380.529 410.225L379.438 410.855L378.808 409.765Z" fill="#9B9596"/>
<defs>
<filter id="filter0_d_746_7699" x="160.989" y="541.302" width="353.131" height="87.0219" filterUnits="userSpaceOnUse" color-interpolation-filters="sRGB">
<feFlood flood-opacity="0" result="BackgroundImageFix"/>
<feColorMatrix in="SourceAlpha" type="matrix" values="0 0 0 0 0 0 0 0 0 0 0 0 0 0 0 0 0 0 127 0" result="hardAlpha"/>
<feMorphology radius="9" operator="dilate" in="SourceAlpha" result="effect1_dropShadow_746_7699"/>
<feOffset dy="4"/>
<feGaussianBlur stdDeviation="4.65"/>
<feComposite in2="hardAlpha" operator="out"/>
<feColorMatrix type="matrix" values="0 0 0 0 0.94902 0 0 0 0 0.690196 0 0 0 0 0.301961 0 0 0 1 0"/>
<feBlend mode="normal" in2="BackgroundImageFix" result="effect1_dropShadow_746_7699"/>
<feBlend mode="normal" in="SourceGraphic" in2="effect1_dropShadow_746_7699" result="shape"/>
</filter>
<filter id="filter1_i_746_7699" x="245.594" y="129.898" width="215.637" height="355.817" filterUnits="userSpaceOnUse" color-interpolation-filters="sRGB">
<feFlood flood-opacity="0" result="BackgroundImageFix"/>
<feBlend mode="normal" in="SourceGraphic" in2="BackgroundImageFix" result="shape"/>
<feColorMatrix in="SourceAlpha" type="matrix" values="0 0 0 0 0 0 0 0 0 0 0 0 0 0 0 0 0 0 127 0" result="hardAlpha"/>
<feOffset dx="16" dy="20"/>
<feGaussianBlur stdDeviation="4.1"/>
<feComposite in2="hardAlpha" operator="arithmetic" k2="-1" k3="1"/>
<feColorMatrix type="matrix" values="0 0 0 0 0.129412 0 0 0 0 0.129412 0 0 0 0 0.129412 0 0 0 0.25 0"/>
<feBlend mode="normal" in2="shape" result="effect1_innerShadow_746_7699"/>
</filter>
<linearGradient id="paint0_linear_746_7699" x1="341" y1="83" x2="341" y2="711" gradientUnits="userSpaceOnUse">
<stop offset="0.538462" stop-color="#D23C8F"/>
<stop offset="0.923077" stop-color="#171543"/>
</linearGradient>
<radialGradient id="paint1_radial_746_7699" cx="0" cy="0" r="1" gradientTransform="matrix(-1.14112 25.5868 -25.5883 -1.14105 18.3099 18.3089)" gradientUnits="userSpaceOnUse">
<stop stop-color="#00F2FF"/>
<stop offset="1" stop-color="#08293A"/>
</radialGradient>
<radialGradient id="paint2_radial_746_7699" cx="0" cy="0" r="1" gradientTransform="matrix(-1.14112 25.5868 -25.5883 -1.14105 18.3099 18.3089)" gradientUnits="userSpaceOnUse">
<stop stop-color="#00F2FF"/>
<stop offset="1" stop-color="#08293A"/>
</radialGradient>
<radialGradient id="paint3_radial_746_7699" cx="0" cy="0" r="1" gradientUnits="userSpaceOnUse" gradientTransform="translate(310.871 410.363) rotate(90) scale(5.38664 5.387)">
<stop offset="0.730769" stop-color="#212121"/>
<stop offset="0.730869" stop-color="#7A808C"/>
</radialGradient>
<radialGradient id="paint4_radial_746_7699" cx="0" cy="0" r="1" gradientUnits="userSpaceOnUse" gradientTransform="translate(379.106 411.09) rotate(90) scale(5.38664 5.387)">
<stop offset="0.730769" stop-color="#212121"/>
<stop offset="0.730869" stop-color="#7A808C"/>
</radialGradient>
</defs>
</svg>
