<svg width="681" height="711" viewBox="0 0 681 711" fill="none" xmlns="http://www.w3.org/2000/svg">
<circle cx="341" cy="397" r="314" fill="url(#paint0_linear_744_5311)"/>
<g filter="url(#filter0_d_744_5311)">
<ellipse cx="337.562" cy="580.812" rx="158.265" ry="25.2101" fill="white"/>
</g>
<ellipse cx="349.399" cy="74.6016" rx="68.2353" ry="31.6016" fill="#212121"/>
<ellipse cx="349.036" cy="115.527" rx="96.6068" ry="47.4024" fill="#F2B04D"/>
<path d="M349.029 90.1797C381.586 90.1797 411.037 97.681 432.331 109.783C453.639 121.894 466.685 138.547 466.685 156.833C466.685 175.119 453.639 191.772 432.331 203.883C411.037 215.985 381.586 223.486 349.029 223.486C316.472 223.486 287.022 215.985 265.729 203.883C244.42 191.772 231.375 175.119 231.375 156.833C231.375 138.547 244.42 121.894 265.729 109.783C287.022 97.681 316.472 90.1798 349.029 90.1797Z" fill="#212121" stroke="black"/>
<path d="M429.557 590.438C432.98 578.47 422.311 567.773 410.045 570.874L404.849 572.188L384.018 571.434L375.598 570.73C373.354 570.542 371.313 572.205 371.071 574.418L370.599 578.729C370.545 579.225 370.871 579.667 371.363 579.765L428.507 591.08C428.964 591.171 429.428 590.887 429.557 590.438Z" fill="#212121"/>
<path d="M371.391 579.72C370.848 579.621 370.307 579.976 370.183 580.514L369.928 581.622L369.922 581.621L369.238 584.589C369.114 585.128 369.454 585.645 369.997 585.745L383.558 588.244C384.101 588.344 384.642 587.989 384.766 587.451L384.866 587.015L392.433 586.866C392.502 586.865 392.57 586.871 392.637 586.883L427.713 593.347C428.256 593.448 428.797 593.092 428.921 592.554L429.19 591.389C429.314 590.85 428.974 590.333 428.431 590.233L371.391 579.72Z" fill="black"/>
<rect width="59.9973" height="0.658499" transform="matrix(0.983439 0.181247 -0.224551 0.974461 370.102 580.766)" fill="#9B9596"/>
<path d="M268.981 586.625C266.501 574.427 277.97 564.593 289.957 568.64L295.035 570.355L315.861 571.225L324.311 571.179C326.562 571.167 328.467 572.984 328.537 575.209L328.672 579.544C328.687 580.042 328.327 580.458 327.829 580.516L269.978 587.348C269.515 587.402 269.074 587.083 268.981 586.625Z" fill="#212121"/>
<path d="M327.829 580.498C328.378 580.44 328.89 580.836 328.971 581.382L329.139 582.5L329.145 582.499L329.595 585.512C329.677 586.058 329.298 586.547 328.749 586.605L315.034 588.041C314.484 588.098 313.973 587.702 313.891 587.156L313.826 586.723L306.296 585.985C306.227 585.978 306.158 585.978 306.09 585.985L270.616 589.699C270.067 589.756 269.555 589.36 269.474 588.814L269.296 587.63C269.215 587.084 269.594 586.594 270.143 586.537L327.829 580.498Z" fill="black"/>
<rect width="59.9972" height="0.6585" transform="matrix(-0.994568 0.104118 0.14798 0.988986 329.047 581.648)" fill="#9B9596"/>
<path d="M306.305 454.547H332.162L328.984 569.672C328.954 570.754 328.068 571.617 326.985 571.617H309.537L306.305 454.547Z" fill="#212121"/>
<path d="M366.641 454.547H392.498L389.32 569.672C389.29 570.754 388.404 571.617 387.32 571.617H370.846C370.304 571.617 369.861 571.185 369.846 570.644L366.641 454.547Z" fill="#212121"/>
<path d="M408.781 420.813C410.125 419.644 412.056 417.944 414.406 415.822C419.106 411.579 425.479 405.65 432.17 398.906C438.861 392.161 445.866 384.606 451.833 377.112C457.806 369.611 462.716 362.2 465.245 355.739L465.249 355.731C471.305 341.103 467.01 323.463 460.976 309.203C454.951 294.966 447.253 284.237 446.701 283.519C446.122 282.765 444.764 282.164 442.849 281.949C440.967 281.737 438.663 281.913 436.339 282.588C431.694 283.937 427.055 287.25 425.52 293.327C425.523 293.316 425.506 293.42 425.667 293.731C425.813 294.014 426.057 294.377 426.398 294.826C427.08 295.724 428.088 296.888 429.319 298.323C431.768 301.181 435.042 305.055 438.106 309.797C444.233 319.28 449.553 332.287 445.774 347.693L445.766 347.724L445.756 347.753C442.573 356.038 434.363 369.036 425.75 380.179C421.439 385.755 417.014 390.885 413.048 394.742C411.066 396.671 409.19 398.289 407.495 399.488C406.012 400.536 404.634 401.286 403.422 401.624L407.335 422.062C407.686 421.76 408.174 421.342 408.781 420.813Z" fill="#212121" stroke="#212121"/>
<path d="M200.76 307.312C201.789 307.685 203.282 308.203 205.135 308.775C208.842 309.921 213.983 311.283 219.718 312.158C231.222 313.911 244.971 313.674 254.42 305.959C260.167 301.267 265.148 293.947 269.391 285.53C273.631 277.12 277.115 267.653 279.884 258.701C285.422 240.794 288.08 225.004 288.208 223.983C288.353 222.829 287.969 221.373 287.125 219.959C286.285 218.552 285.019 217.236 283.477 216.358C281.939 215.483 280.134 215.048 278.196 215.378C276.257 215.707 274.135 216.81 271.981 219.101C271.97 219.112 271.932 219.161 271.878 219.279C271.826 219.39 271.768 219.54 271.707 219.732C271.584 220.115 271.456 220.633 271.317 221.279C271.041 222.571 270.737 224.329 270.375 226.463C269.652 230.723 268.701 236.444 267.289 242.791C264.466 255.471 259.784 270.718 251.309 281.87C245.919 288.962 236.593 292.059 227.932 292.821C223.591 293.203 219.388 293.001 215.877 292.408C212.713 291.873 210.058 291.009 208.381 289.929L199.679 306.906C199.944 307.008 200.306 307.147 200.76 307.312Z" fill="#212121" stroke="#222222"/>
<path d="M158.809 330.71C159.347 332.273 161.106 333.708 163.809 334.415C166.323 335.072 169.581 335.074 173.194 333.986L173.921 333.753C180.477 331.532 183.17 327.871 183.252 324.082L183.252 324.072C183.282 323.345 183.199 322.603 183.022 321.843L183.022 321.842C182.512 319.638 181.311 318.728 180.236 318.342C179.343 318.021 178.501 318.053 178.137 318.088C176.05 320.669 172.507 322.623 167.404 323.134L167.403 323.135C164.712 323.402 162.385 323.358 160.412 323.041C158.592 324.73 157.679 327.432 158.809 330.71Z" fill="#222222" stroke="#605E5E"/>
<path d="M152.37 315.773C153.393 318.906 155.821 321.22 160.36 322.004C162.035 322.295 164.016 322.378 166.318 322.212L167.324 322.126C172.329 321.624 175.639 319.696 177.502 317.294L177.513 317.303C177.514 317.3 177.516 317.299 177.518 317.296L177.514 317.293C179.063 315.305 179.632 312.974 179.331 310.781C179.001 308.399 177.611 307.027 176.279 306.236C175.61 305.839 174.96 305.592 174.476 305.445C174.235 305.371 174.037 305.323 173.901 305.293C173.889 305.291 173.878 305.288 173.867 305.286C171.945 306.433 169.538 307.139 166.908 307.461L166.364 307.522C163.159 307.853 159.027 307.78 155.584 306.24C152.767 308.193 151.212 311.676 152.257 315.403L152.37 315.773Z" fill="#222222" stroke="#605E5E"/>
<path d="M149.955 295.872C150.097 298.45 150.78 300.421 151.798 301.924C152.816 303.428 154.188 304.489 155.748 305.222L155.749 305.223C159 306.763 163.045 306.865 166.263 306.533L166.263 306.533C169.09 306.246 171.603 305.523 173.513 304.34L173.67 304.243L173.85 304.271L173.774 304.766L173.851 304.27L173.853 304.27C173.855 304.271 173.856 304.271 173.858 304.272C173.862 304.272 173.867 304.273 173.873 304.274C173.885 304.276 173.903 304.279 173.925 304.283C173.97 304.292 174.033 304.304 174.112 304.321C174.271 304.356 174.496 304.41 174.766 304.493C175.305 304.657 176.032 304.933 176.786 305.38C178.299 306.278 179.932 307.881 180.315 310.646C180.612 312.801 180.156 315.062 178.889 317.068C179.369 317.09 179.966 317.171 180.587 317.394C181.966 317.889 183.414 319.059 184.004 321.607L184.005 321.606C184.158 322.262 184.247 322.917 184.262 323.572C184.311 323.569 184.363 323.567 184.42 323.563C184.773 323.542 185.284 323.507 185.914 323.454C187.175 323.347 188.911 323.167 190.812 322.873C194.644 322.279 199.041 321.233 201.618 319.454L201.619 319.453C203.64 318.067 205.166 316.2 206.169 314.13L206.882 312.655L207.053 313.871C207.559 313.901 208.511 313.941 209.541 313.893C210.275 313.86 211.033 313.784 211.692 313.636C212.366 313.484 212.869 313.272 213.152 313.013L213.154 313.012C214.771 311.55 217.129 307.067 216.06 299.592C215.552 296.042 214.545 292.992 213.443 290.726C212.891 289.592 212.319 288.661 211.78 287.964C211.233 287.257 210.749 286.827 210.383 286.646L210.382 286.645L210.187 286.563C209.699 286.387 208.968 286.331 208.074 286.489C207.065 286.668 205.895 287.111 204.729 287.894L204.626 287.964L204.503 287.977L204.491 287.978L204.133 288.015L203.987 287.687L203.802 287.295C203.609 286.905 203.391 286.522 203.153 286.139L203.153 286.14C200.661 282.183 196.33 279.814 190.812 280.927C187.952 281.503 185.387 281.931 183.319 281.751C182.276 281.661 181.332 281.414 180.528 280.936C179.718 280.453 179.077 279.748 178.623 278.787C178.148 277.779 178.143 276.642 178.316 275.451C178.488 274.268 178.855 272.94 179.187 271.556C179.837 268.841 180.4 265.746 179.461 262.278L179.364 261.941C178.315 258.414 175.81 256.84 173.094 256.919C170.34 257 167.266 258.786 165.186 262.218L165.186 262.22C163.333 265.262 162.648 269.103 162.841 272.774C163.033 276.448 164.101 279.883 165.678 282.105L166.18 282.811L165.317 282.895C160.306 283.383 156.351 284.695 153.714 286.837C151.183 288.892 149.825 291.744 149.94 295.505L149.955 295.872Z" fill="#222222" stroke="#605E5E"/>
<path d="M206.102 295.378C206.102 295.378 206.139 291.489 204.436 287.766C204.195 287.212 203.908 286.678 203.586 286.147C201.037 282.004 196.533 279.481 190.785 280.577C185.036 281.673 180.78 282.112 179.164 278.589C177.547 275.067 182.25 269.319 180.107 261.823C177.966 254.339 169.398 254.776 165.024 261.827C161.12 268.088 162.08 277.597 165.321 282.269C165.734 282.848 166.173 283.363 166.634 283.773" fill="#222222"/>
<path d="M206.102 295.378C206.102 295.378 206.139 291.489 204.436 287.766C204.195 287.212 203.908 286.678 203.586 286.147C201.037 282.004 196.533 279.481 190.785 280.577C185.036 281.673 180.78 282.112 179.164 278.589C177.547 275.067 182.25 269.319 180.107 261.823C177.966 254.339 169.398 254.776 165.024 261.827C161.12 268.088 162.08 277.597 165.321 282.269C165.734 282.848 166.173 283.363 166.634 283.773" stroke="#605E5E" stroke-width="1.5" stroke-miterlimit="10" stroke-linecap="round" stroke-linejoin="round"/>
<path d="M160.404 292.114C160.404 292.114 164.776 288.211 169.853 288.556C174.919 288.903 177.826 292.397 177.697 297.948C177.625 301.017 176.049 303.235 173.585 304.713C171.577 305.928 168.975 306.638 166.099 306.899C162.844 307.2 158.692 307.064 155.337 305.43C152.099 303.869 149.599 300.905 149.362 295.592C148.997 287.399 155.189 283.132 165.316 282.254" fill="#222222"/>
<path d="M160.404 292.114C160.404 292.114 164.776 288.211 169.853 288.556C174.919 288.903 177.826 292.397 177.697 297.948C177.625 301.017 176.049 303.235 173.585 304.713C171.577 305.928 168.975 306.638 166.099 306.899C162.844 307.2 158.692 307.064 155.337 305.43C152.099 303.869 149.599 300.905 149.362 295.592C148.997 287.399 155.189 283.132 165.316 282.254" stroke="#605E5E" stroke-width="1.5" stroke-miterlimit="10" stroke-linecap="round" stroke-linejoin="round"/>
<path d="M177.578 317.606C175.586 320.119 172.117 322.06 167.003 322.519C164.232 322.765 161.873 322.679 159.907 322.315C155.217 321.453 152.652 318.998 151.599 315.659C150.275 311.446 152.1 307.496 155.349 305.435" fill="#222222"/>
<path d="M177.578 317.606C175.586 320.119 172.117 322.06 167.003 322.519C164.232 322.765 161.873 322.679 159.907 322.315C155.217 321.453 152.652 318.998 151.599 315.659C150.275 311.446 152.1 307.496 155.349 305.435" stroke="#605E5E" stroke-width="1.5" stroke-miterlimit="10" stroke-linecap="round" stroke-linejoin="round"/>
<path d="M173.598 304.707C173.598 304.707 178.924 305.568 179.582 310.722C179.879 313.055 179.247 315.514 177.592 317.592" fill="#222222"/>
<path d="M173.598 304.707C173.598 304.707 178.924 305.568 179.582 310.722C179.879 313.055 179.247 315.514 177.592 317.592" stroke="#605E5E" stroke-width="1.5" stroke-miterlimit="10" stroke-linecap="round" stroke-linejoin="round"/>
<path d="M177.574 317.612C177.574 317.612 177.574 317.612 177.586 317.611C177.904 317.567 182.108 317.022 183.159 321.785C183.336 322.585 183.417 323.373 183.376 324.153C183.246 328.23 180.293 331.998 173.599 334.187C165.606 336.794 159.087 334.249 157.894 330.669C156.701 327.087 157.793 324.113 159.904 322.322" fill="#222222"/>
<path d="M177.574 317.612C177.574 317.612 177.574 317.612 177.586 317.611C177.904 317.567 182.108 317.022 183.159 321.785C183.336 322.585 183.417 323.373 183.376 324.153C183.246 328.23 180.293 331.998 173.599 334.187C165.606 336.794 159.087 334.249 157.894 330.669C156.701 327.087 157.793 324.113 159.904 322.322" stroke="#605E5E" stroke-width="1.5" stroke-miterlimit="10" stroke-linecap="round" stroke-linejoin="round"/>
<path d="M206.344 314.645C208.013 311.329 208.405 307.503 207.42 304.318Z" fill="#222222"/>
<path d="M206.344 314.645C208.013 311.329 208.405 307.503 207.42 304.318" stroke="#605E5E" stroke-width="1.5" stroke-miterlimit="10" stroke-linecap="round" stroke-linejoin="round"/>
<path d="M183.532 324.17C183.532 324.17 196.18 323.779 201.58 320.134C203.693 318.717 205.295 316.797 206.355 314.664" fill="#222222"/>
<path d="M183.532 324.17C183.532 324.17 196.18 323.779 201.58 320.134C203.693 318.717 205.295 316.797 206.355 314.664" stroke="#605E5E" stroke-width="1.5" stroke-miterlimit="10" stroke-linecap="round" stroke-linejoin="round"/>
<path d="M198.516 303.339C198.516 303.339 194.337 310.05 184.086 309.086Z" fill="#222222"/>
<path d="M198.516 303.339C198.516 303.339 194.337 310.05 184.086 309.086" stroke="#605E5E" stroke-width="1.5" stroke-miterlimit="10" stroke-linecap="round" stroke-linejoin="round"/>
<path d="M206.343 314.634C206.343 314.634 206.343 314.634 206.354 314.632C206.56 314.654 211.678 315.119 213.221 313.744C215.012 312.159 217.44 307.515 216.433 299.91C215.479 292.699 212.474 287.47 210.625 286.527C209.417 285.907 206.918 286.129 204.46 287.743" fill="#222222"/>
<path d="M206.343 314.634C206.343 314.634 206.343 314.634 206.354 314.632C206.56 314.654 211.678 315.119 213.221 313.744C215.012 312.159 217.44 307.515 216.433 299.91C215.479 292.699 212.474 287.47 210.625 286.527C209.417 285.907 206.918 286.129 204.46 287.743" stroke="#605E5E" stroke-width="1.5" stroke-miterlimit="10" stroke-linecap="round" stroke-linejoin="round"/>
<g filter="url(#filter1_i_744_5311)">
<path d="M246.185 243.574C240.303 182.642 288.2 129.898 349.415 129.898C410.631 129.898 458.528 182.642 452.646 243.574L437.811 397.243C433.416 442.773 395.157 477.516 349.415 477.516C303.674 477.516 265.415 442.773 261.019 397.243L246.185 243.574Z" fill="#F2B04D"/>
</g>
<path d="M363.031 217.148C363.031 209.826 368.967 203.891 376.289 203.891H376.969C400.213 203.891 419.056 222.733 419.056 245.977C419.056 259.226 408.316 269.967 395.067 269.967H388.052C374.233 269.967 363.031 258.765 363.031 244.946V217.148Z" fill="white"/>
<ellipse cx="18.3099" cy="18.3089" rx="18.3099" ry="18.3089" transform="matrix(0.975031 0.222068 -0.222096 0.975025 370.234 213.625)" fill="url(#paint1_radial_744_5311)"/>
<ellipse cx="8.06368" cy="8.0632" rx="8.06368" ry="8.0632" transform="matrix(0.975031 0.222068 -0.222096 0.975025 377.961 225.82)" fill="black"/>
<rect x="383.914" y="243.633" width="0.211902" height="10.1706" fill="#212121" fill-opacity="0.49"/>
<rect x="383.914" y="217.352" width="0.211902" height="10.1706" fill="#212121" fill-opacity="0.49"/>
<rect x="375.953" y="235.445" width="0.211888" height="10.1713" transform="rotate(89.9985 375.953 235.445)" fill="#212121" fill-opacity="0.49"/>
<rect x="402.234" y="235.445" width="0.211888" height="10.1713" transform="rotate(89.9985 402.234 235.445)" fill="#212121" fill-opacity="0.49"/>
<rect width="0.211902" height="10.1706" transform="matrix(0.996609 0.0822851 -0.0822959 0.996608 383.266 243.578)" fill="#212121" fill-opacity="0.49"/>
<rect width="0.211902" height="10.1706" transform="matrix(0.996609 0.0822851 -0.0822959 0.996608 385.414 217.383)" fill="#212121" fill-opacity="0.49"/>
<rect width="0.211888" height="10.1713" transform="matrix(-0.0822689 0.99661 -0.996611 -0.0822582 376.008 234.781)" fill="#212121" fill-opacity="0.49"/>
<rect width="0.211888" height="10.1713" transform="matrix(-0.0822689 0.99661 -0.996611 -0.0822582 402.203 236.93)" fill="#212121" fill-opacity="0.49"/>
<rect width="0.211902" height="10.1706" transform="matrix(0.986458 0.164012 -0.164033 0.986455 382.617 243.5)" fill="#212121" fill-opacity="0.49"/>
<rect width="0.211902" height="10.1706" transform="matrix(0.986458 0.164012 -0.164033 0.986455 386.906 217.57)" fill="#212121" fill-opacity="0.49"/>
<rect width="0.211888" height="10.1713" transform="matrix(-0.164007 0.986459 -0.986463 -0.163986 376.117 234.141)" fill="#212121" fill-opacity="0.49"/>
<rect width="0.211888" height="10.1713" transform="matrix(-0.164007 0.986459 -0.986463 -0.163986 402.031 238.43)" fill="#212121" fill-opacity="0.49"/>
<rect width="0.211901" height="10.1707" transform="matrix(0.969617 0.244627 -0.244658 0.969609 381.906 243.344)" fill="#212121" fill-opacity="0.49"/>
<rect width="0.211901" height="10.1707" transform="matrix(0.969617 0.244627 -0.244658 0.969609 388.336 217.852)" fill="#212121" fill-opacity="0.49"/>
<rect width="0.211889" height="10.1712" transform="matrix(-0.244631 0.969616 -0.969624 -0.244601 376.203 233.508)" fill="#212121" fill-opacity="0.49"/>
<rect width="0.211889" height="10.1712" transform="matrix(-0.244631 0.969616 -0.969624 -0.244601 401.703 239.914)" fill="#212121" fill-opacity="0.49"/>
<rect width="0.2119" height="10.1707" transform="matrix(0.946199 0.323584 -0.323622 0.946186 381.312 243.148)" fill="#212121" fill-opacity="0.49"/>
<rect width="0.2119" height="10.1707" transform="matrix(0.946199 0.323584 -0.323622 0.946186 389.828 218.289)" fill="#212121" fill-opacity="0.49"/>
<rect width="0.211889" height="10.1712" transform="matrix(-0.323596 0.946195 -0.946208 -0.323558 376.453 232.875)" fill="#212121" fill-opacity="0.49"/>
<rect width="0.211889" height="10.1712" transform="matrix(-0.323596 0.946195 -0.946208 -0.323558 401.312 241.359)" fill="#212121" fill-opacity="0.49"/>
<rect width="0.2119" height="10.1707" transform="matrix(0.916364 0.400346 -0.40039 0.916345 380.68 242.883)" fill="#212121" fill-opacity="0.49"/>
<rect width="0.2119" height="10.1707" transform="matrix(0.916364 0.400346 -0.40039 0.916345 391.18 218.812)" fill="#212121" fill-opacity="0.49"/>
<rect width="0.21189" height="10.1712" transform="matrix(-0.400365 0.916356 -0.916375 -0.400321 376.641 232.25)" fill="#212121" fill-opacity="0.49"/>
<rect width="0.21189" height="10.1712" transform="matrix(-0.400365 0.916356 -0.916375 -0.400321 400.742 242.758)" fill="#212121" fill-opacity="0.49"/>
<rect width="0.211899" height="10.1708" transform="matrix(0.880313 0.474393 -0.474441 0.880287 380.117 242.625)" fill="#212121" fill-opacity="0.49"/>
<rect width="0.211899" height="10.1708" transform="matrix(0.880313 0.474393 -0.474441 0.880287 392.57 219.492)" fill="#212121" fill-opacity="0.49"/>
<rect width="0.211891" height="10.1711" transform="matrix(-0.474418 0.8803 -0.880326 -0.474369 376.969 231.664)" fill="#212121" fill-opacity="0.49"/>
<rect width="0.211891" height="10.1711" transform="matrix(-0.474418 0.8803 -0.880326 -0.474369 400.102 244.117)" fill="#212121" fill-opacity="0.49"/>
<rect width="0.211898" height="10.1708" transform="matrix(0.838291 0.545223 -0.545274 0.838258 379.531 242.25)" fill="#212121" fill-opacity="0.49"/>
<rect width="0.211898" height="10.1708" transform="matrix(0.838291 0.545223 -0.545274 0.838258 393.844 220.234)" fill="#212121" fill-opacity="0.49"/>
<rect width="0.211892" height="10.1711" transform="matrix(-0.545251 0.838273 -0.838305 -0.545201 377.289 231.094)" fill="#212121" fill-opacity="0.49"/>
<rect width="0.211892" height="10.1711" transform="matrix(-0.545251 0.838273 -0.838305 -0.545201 399.32 245.406)" fill="#212121" fill-opacity="0.49"/>
<rect width="0.211897" height="10.1709" transform="matrix(0.790582 0.612356 -0.612406 0.790543 379.008 241.875)" fill="#212121" fill-opacity="0.49"/>
<rect width="0.211897" height="10.1709" transform="matrix(0.790582 0.612356 -0.612406 0.790543 395.109 221.086)" fill="#212121" fill-opacity="0.49"/>
<rect width="0.211893" height="10.171" transform="matrix(-0.612385 0.790559 -0.790598 -0.612335 377.742 230.547)" fill="#212121" fill-opacity="0.49"/>
<rect width="0.211893" height="10.171" transform="matrix(-0.612385 0.790559 -0.790598 -0.612335 398.508 246.625)" fill="#212121" fill-opacity="0.49"/>
<rect width="0.211895" height="10.1709" transform="matrix(0.73751 0.675336 -0.675384 0.737466 378.477 241.422)" fill="#212121" fill-opacity="0.49"/>
<rect width="0.211895" height="10.1709" transform="matrix(0.73751 0.675336 -0.675384 0.737466 396.203 222.055)" fill="#212121" fill-opacity="0.49"/>
<rect width="0.211894" height="10.171" transform="matrix(-0.675364 0.737484 -0.737528 -0.675316 378.125 230.086)" fill="#212121" fill-opacity="0.49"/>
<rect width="0.211894" height="10.171" transform="matrix(-0.675364 0.737484 -0.737528 -0.675316 397.516 247.812)" fill="#212121" fill-opacity="0.49"/>
<rect width="0.211894" height="10.171" transform="matrix(0.679435 0.733735 -0.73378 0.679387 378.008 240.961)" fill="#212121" fill-opacity="0.49"/>
<rect width="0.211894" height="10.171" transform="matrix(0.679435 0.733735 -0.73378 0.679387 397.266 223.102)" fill="#212121" fill-opacity="0.49"/>
<rect width="0.211895" height="10.1709" transform="matrix(-0.733762 0.679407 -0.679455 -0.733717 378.57 229.578)" fill="#212121" fill-opacity="0.49"/>
<rect width="0.211895" height="10.1709" transform="matrix(-0.733762 0.679407 -0.679455 -0.733717 396.43 248.859)" fill="#212121" fill-opacity="0.49"/>
<rect width="0.211893" height="10.171" transform="matrix(0.616751 0.787158 -0.787198 0.6167 377.641 240.438)" fill="#212121" fill-opacity="0.49"/>
<rect width="0.211893" height="10.171" transform="matrix(0.616751 0.787158 -0.787198 0.6167 398.297 224.242)" fill="#212121" fill-opacity="0.49"/>
<rect width="0.211897" height="10.1709" transform="matrix(-0.787181 0.616722 -0.616772 -0.787142 379.172 229.164)" fill="#212121" fill-opacity="0.49"/>
<rect width="0.211897" height="10.1709" transform="matrix(-0.787181 0.616722 -0.616772 -0.787142 395.383 249.844)" fill="#212121" fill-opacity="0.49"/>
<rect width="0.211892" height="10.1711" transform="matrix(0.549882 0.835242 -0.835276 0.549831 377.258 239.906)" fill="#212121" fill-opacity="0.49"/>
<rect width="0.211892" height="10.1711" transform="matrix(0.549882 0.835242 -0.835276 0.549831 399.188 225.469)" fill="#212121" fill-opacity="0.49"/>
<rect width="0.211898" height="10.1708" transform="matrix(-0.835261 0.549854 -0.549904 -0.835228 379.664 228.812)" fill="#212121" fill-opacity="0.49"/>
<rect width="0.211898" height="10.1708" transform="matrix(-0.835261 0.549854 -0.549904 -0.835228 394.133 250.742)" fill="#212121" fill-opacity="0.49"/>
<rect width="0.211891" height="10.1711" transform="matrix(0.479282 0.877661 -0.877687 0.479233 376.859 239.32)" fill="#212121" fill-opacity="0.49"/>
<rect width="0.211891" height="10.1711" transform="matrix(0.479282 0.877661 -0.877687 0.479233 399.93 226.711)" fill="#212121" fill-opacity="0.49"/>
<rect width="0.211899" height="10.1708" transform="matrix(-0.877674 0.479257 -0.479306 -0.877648 380.234 228.453)" fill="#212121" fill-opacity="0.49"/>
<rect width="0.211899" height="10.1708" transform="matrix(-0.877674 0.479257 -0.479306 -0.877648 392.836 251.523)" fill="#212121" fill-opacity="0.49"/>
<rect width="0.21189" height="10.1712" transform="matrix(0.40543 0.914126 -0.914146 0.405386 376.625 238.75)" fill="#212121" fill-opacity="0.49"/>
<rect width="0.21189" height="10.1712" transform="matrix(0.40543 0.914126 -0.914146 0.405386 400.633 228.094)" fill="#212121" fill-opacity="0.49"/>
<rect width="0.2119" height="10.1707" transform="matrix(-0.914135 0.40541 -0.405455 -0.914115 380.852 228.18)" fill="#212121" fill-opacity="0.49"/>
<rect width="0.2119" height="10.1707" transform="matrix(-0.914135 0.40541 -0.405455 -0.914115 391.508 252.188)" fill="#212121" fill-opacity="0.49"/>
<rect width="0.211889" height="10.1712" transform="matrix(0.328828 0.94439 -0.944403 0.328789 376.352 238.07)" fill="#212121" fill-opacity="0.49"/>
<rect width="0.211889" height="10.1712" transform="matrix(0.328828 0.94439 -0.944403 0.328789 401.172 229.43)" fill="#212121" fill-opacity="0.49"/>
<rect width="0.2119" height="10.1707" transform="matrix(-0.944394 0.328815 -0.328853 -0.944381 381.453 227.898)" fill="#212121" fill-opacity="0.49"/>
<rect width="0.2119" height="10.1707" transform="matrix(-0.944394 0.328815 -0.328853 -0.944381 390.117 252.711)" fill="#212121" fill-opacity="0.49"/>
<rect width="0.211889" height="10.1712" transform="matrix(0.249994 0.968247 -0.968255 0.249963 376.156 237.5)" fill="#212121" fill-opacity="0.49"/>
<rect width="0.211889" height="10.1712" transform="matrix(0.249994 0.968247 -0.968255 0.249963 401.609 230.914)" fill="#212121" fill-opacity="0.49"/>
<rect width="0.211901" height="10.1707" transform="matrix(-0.968248 0.249989 -0.25002 -0.96824 382.094 227.734)" fill="#212121" fill-opacity="0.49"/>
<rect width="0.211901" height="10.1707" transform="matrix(-0.968248 0.249989 -0.25002 -0.96824 388.68 253.188)" fill="#212121" fill-opacity="0.49"/>
<rect width="0.211888" height="10.1713" transform="matrix(0.169463 0.985536 -0.98554 0.169442 376.031 236.844)" fill="#212121" fill-opacity="0.49"/>
<rect width="0.211888" height="10.1713" transform="matrix(0.169463 0.985536 -0.98554 0.169442 401.945 232.383)" fill="#212121" fill-opacity="0.49"/>
<rect width="0.211901" height="10.1706" transform="matrix(-0.985535 0.169468 -0.16949 -0.985532 382.703 227.633)" fill="#212121" fill-opacity="0.49"/>
<rect width="0.211901" height="10.1706" transform="matrix(-0.985535 0.169468 -0.16949 -0.985532 387.195 253.523)" fill="#212121" fill-opacity="0.49"/>
<rect width="0.211888" height="10.1713" transform="matrix(0.0877831 0.996139 -0.99614 0.0877717 376 236.188)" fill="#212121" fill-opacity="0.49"/>
<rect width="0.211888" height="10.1713" transform="matrix(0.0877831 0.996139 -0.99614 0.0877717 402.156 233.867)" fill="#212121" fill-opacity="0.49"/>
<rect width="0.211902" height="10.1706" transform="matrix(-0.996138 0.0877986 -0.08781 -0.996137 383.383 227.57)" fill="#212121" fill-opacity="0.49"/>
<rect width="0.211902" height="10.1706" transform="matrix(-0.996138 0.0877986 -0.08781 -0.996137 385.727 253.742)" fill="#212121" fill-opacity="0.49"/>
<ellipse cx="379.27" cy="229.668" rx="2.99639" ry="2.9962" fill="white"/>
<ellipse cx="389.521" cy="241.404" rx="1.9976" ry="1.99746" fill="white"/>
<path d="M330.555 217.148C330.555 209.826 324.619 203.891 317.297 203.891H316.617C293.373 203.891 274.53 222.733 274.53 245.977C274.53 259.226 285.27 269.967 298.519 269.967H305.534C319.353 269.967 330.555 258.765 330.555 244.946V217.148Z" fill="white"/>
<ellipse cx="18.3099" cy="18.3089" rx="18.3099" ry="18.3089" transform="matrix(-0.975031 0.222068 0.222096 0.975025 323.359 213.625)" fill="url(#paint2_radial_744_5311)"/>
<ellipse cx="8.06368" cy="8.0632" rx="8.06368" ry="8.0632" transform="matrix(-0.975031 0.222068 0.222096 0.975025 315.633 225.82)" fill="black"/>
<rect width="0.211902" height="10.1706" transform="matrix(-1 0 0 1 309.672 243.633)" fill="#212121" fill-opacity="0.49"/>
<rect width="0.211902" height="10.1706" transform="matrix(-1 0 0 1 309.672 217.352)" fill="#212121" fill-opacity="0.49"/>
<rect width="0.211888" height="10.1713" transform="matrix(-2.70187e-05 1 1 2.70151e-05 317.57 235.445)" fill="#212121" fill-opacity="0.49"/>
<rect width="0.211888" height="10.1713" transform="matrix(-2.70187e-05 1 1 2.70151e-05 291.336 235.445)" fill="#212121" fill-opacity="0.49"/>
<rect width="0.211902" height="10.1706" transform="matrix(-0.996609 0.0822851 0.0822959 0.996608 310.305 243.609)" fill="#212121" fill-opacity="0.49"/>
<rect width="0.211902" height="10.1706" transform="matrix(-0.996609 0.0822851 0.0822959 0.996608 308.164 217.414)" fill="#212121" fill-opacity="0.49"/>
<rect width="0.211888" height="10.1713" transform="matrix(0.0822689 0.99661 0.996611 -0.0822582 317.578 234.812)" fill="#212121" fill-opacity="0.49"/>
<rect width="0.211888" height="10.1713" transform="matrix(0.0822689 0.99661 0.996611 -0.0822582 291.383 236.953)" fill="#212121" fill-opacity="0.49"/>
<rect width="0.211902" height="10.1706" transform="matrix(-0.986458 0.164012 0.164033 0.986455 310.992 243.469)" fill="#212121" fill-opacity="0.49"/>
<rect width="0.211902" height="10.1706" transform="matrix(-0.986458 0.164012 0.164033 0.986455 306.703 217.562)" fill="#212121" fill-opacity="0.49"/>
<rect width="0.211888" height="10.1713" transform="matrix(0.164007 0.986459 0.986463 -0.163986 317.461 234.148)" fill="#212121" fill-opacity="0.49"/>
<rect width="0.211888" height="10.1713" transform="matrix(0.164007 0.986459 0.986463 -0.163986 291.555 238.438)" fill="#212121" fill-opacity="0.49"/>
<rect width="0.211901" height="10.1707" transform="matrix(-0.969617 0.244627 0.244658 0.969609 311.617 243.344)" fill="#212121" fill-opacity="0.49"/>
<rect width="0.211901" height="10.1707" transform="matrix(-0.969617 0.244627 0.244658 0.969609 305.211 217.875)" fill="#212121" fill-opacity="0.49"/>
<rect width="0.211889" height="10.1712" transform="matrix(0.244631 0.969616 0.969624 -0.244601 317.336 233.523)" fill="#212121" fill-opacity="0.49"/>
<rect width="0.211889" height="10.1712" transform="matrix(0.244631 0.969616 0.969624 -0.244601 291.844 239.93)" fill="#212121" fill-opacity="0.49"/>
<rect width="0.2119" height="10.1707" transform="matrix(-0.946199 0.323584 0.323622 0.946186 312.305 243.172)" fill="#212121" fill-opacity="0.49"/>
<rect width="0.2119" height="10.1707" transform="matrix(-0.946199 0.323584 0.323622 0.946186 303.812 218.289)" fill="#212121" fill-opacity="0.49"/>
<rect width="0.211889" height="10.1712" transform="matrix(0.323596 0.946195 0.946208 -0.323558 317.164 232.867)" fill="#212121" fill-opacity="0.49"/>
<rect width="0.211889" height="10.1712" transform="matrix(0.323596 0.946195 0.946208 -0.323558 292.305 241.352)" fill="#212121" fill-opacity="0.49"/>
<rect width="0.2119" height="10.1707" transform="matrix(-0.916364 0.400346 0.40039 0.916345 312.891 242.906)" fill="#212121" fill-opacity="0.49"/>
<rect width="0.2119" height="10.1707" transform="matrix(-0.916364 0.400346 0.40039 0.916345 302.367 218.812)" fill="#212121" fill-opacity="0.49"/>
<rect width="0.21189" height="10.1712" transform="matrix(0.400365 0.916356 0.916375 -0.400321 316.898 232.273)" fill="#212121" fill-opacity="0.49"/>
<rect width="0.21189" height="10.1712" transform="matrix(0.400365 0.916356 0.916375 -0.400321 292.805 242.773)" fill="#212121" fill-opacity="0.49"/>
<rect width="0.211899" height="10.1708" transform="matrix(-0.880313 0.474393 0.474441 0.880287 313.445 242.625)" fill="#212121" fill-opacity="0.49"/>
<rect width="0.211899" height="10.1708" transform="matrix(-0.880313 0.474393 0.474441 0.880287 300.992 219.492)" fill="#212121" fill-opacity="0.49"/>
<rect width="0.211891" height="10.1711" transform="matrix(0.474418 0.8803 0.880326 -0.474369 316.594 231.68)" fill="#212121" fill-opacity="0.49"/>
<rect width="0.211891" height="10.1711" transform="matrix(0.474418 0.8803 0.880326 -0.474369 293.461 244.133)" fill="#212121" fill-opacity="0.49"/>
<rect width="0.211898" height="10.1708" transform="matrix(-0.838291 0.545223 0.545274 0.838258 314.062 242.281)" fill="#212121" fill-opacity="0.49"/>
<rect width="0.211898" height="10.1708" transform="matrix(-0.838291 0.545223 0.545274 0.838258 299.75 220.242)" fill="#212121" fill-opacity="0.49"/>
<rect width="0.211892" height="10.1711" transform="matrix(0.545251 0.838273 0.838305 -0.545201 316.289 231.047)" fill="#212121" fill-opacity="0.49"/>
<rect width="0.211892" height="10.1711" transform="matrix(0.545251 0.838273 0.838305 -0.545201 294.258 245.375)" fill="#212121" fill-opacity="0.49"/>
<rect width="0.211897" height="10.1709" transform="matrix(-0.790582 0.612356 0.612406 0.790543 314.555 241.883)" fill="#212121" fill-opacity="0.49"/>
<rect width="0.211897" height="10.1709" transform="matrix(-0.790582 0.612356 0.612406 0.790543 298.469 221.109)" fill="#212121" fill-opacity="0.49"/>
<rect width="0.211893" height="10.171" transform="matrix(0.612385 0.790559 0.790598 -0.612335 315.844 230.57)" fill="#212121" fill-opacity="0.49"/>
<rect width="0.211893" height="10.171" transform="matrix(0.612385 0.790559 0.790598 -0.612335 295.078 246.648)" fill="#212121" fill-opacity="0.49"/>
<rect width="0.211895" height="10.1709" transform="matrix(-0.73751 0.675336 0.675384 0.737466 315.086 241.422)" fill="#212121" fill-opacity="0.49"/>
<rect width="0.211895" height="10.1709" transform="matrix(-0.73751 0.675336 0.675384 0.737466 297.359 222.055)" fill="#212121" fill-opacity="0.49"/>
<rect width="0.211894" height="10.171" transform="matrix(0.675364 0.737484 0.737528 -0.675316 315.461 230.023)" fill="#212121" fill-opacity="0.49"/>
<rect width="0.211894" height="10.171" transform="matrix(0.675364 0.737484 0.737528 -0.675316 296.07 247.766)" fill="#212121" fill-opacity="0.49"/>
<rect width="0.211894" height="10.171" transform="matrix(-0.679435 0.733735 0.73378 0.679387 315.594 240.945)" fill="#212121" fill-opacity="0.49"/>
<rect width="0.211894" height="10.171" transform="matrix(-0.679435 0.733735 0.73378 0.679387 296.312 223.086)" fill="#212121" fill-opacity="0.49"/>
<rect width="0.211895" height="10.1709" transform="matrix(0.733762 0.679407 0.679455 -0.733717 314.977 229.586)" fill="#212121" fill-opacity="0.49"/>
<rect width="0.211895" height="10.1709" transform="matrix(0.733762 0.679407 0.679455 -0.733717 297.117 248.867)" fill="#212121" fill-opacity="0.49"/>
<rect width="0.211893" height="10.171" transform="matrix(-0.616751 0.787158 0.787198 0.6167 315.984 240.406)" fill="#212121" fill-opacity="0.49"/>
<rect width="0.211893" height="10.171" transform="matrix(-0.616751 0.787158 0.787198 0.6167 295.32 224.211)" fill="#212121" fill-opacity="0.49"/>
<rect width="0.211897" height="10.1709" transform="matrix(0.787181 0.616722 0.616772 -0.787142 314.461 229.141)" fill="#212121" fill-opacity="0.49"/>
<rect width="0.211897" height="10.1709" transform="matrix(0.787181 0.616722 0.616772 -0.787142 298.25 249.82)" fill="#212121" fill-opacity="0.49"/>
<rect width="0.211892" height="10.1711" transform="matrix(-0.549882 0.835242 0.835276 0.549831 316.32 239.883)" fill="#212121" fill-opacity="0.49"/>
<rect width="0.211892" height="10.1711" transform="matrix(-0.549882 0.835242 0.835276 0.549831 294.391 225.438)" fill="#212121" fill-opacity="0.49"/>
<rect width="0.211898" height="10.1708" transform="matrix(0.835261 0.549854 0.549904 -0.835228 313.914 228.773)" fill="#212121" fill-opacity="0.49"/>
<rect width="0.211898" height="10.1708" transform="matrix(0.835261 0.549854 0.549904 -0.835228 299.445 250.719)" fill="#212121" fill-opacity="0.49"/>
<rect width="0.211891" height="10.1711" transform="matrix(-0.479282 0.877661 0.877687 0.479233 316.68 239.32)" fill="#212121" fill-opacity="0.49"/>
<rect width="0.211891" height="10.1711" transform="matrix(-0.479282 0.877661 0.877687 0.479233 293.617 226.711)" fill="#212121" fill-opacity="0.49"/>
<rect width="0.211899" height="10.1708" transform="matrix(0.877674 0.479257 0.479306 -0.877648 313.312 228.453)" fill="#212121" fill-opacity="0.49"/>
<rect width="0.211899" height="10.1708" transform="matrix(0.877674 0.479257 0.479306 -0.877648 300.703 251.5)" fill="#212121" fill-opacity="0.49"/>
<rect width="0.21189" height="10.1712" transform="matrix(-0.40543 0.914126 0.914146 0.405386 316.992 238.75)" fill="#212121" fill-opacity="0.49"/>
<rect width="0.21189" height="10.1712" transform="matrix(-0.40543 0.914126 0.914146 0.405386 292.938 228.07)" fill="#212121" fill-opacity="0.49"/>
<rect width="0.2119" height="10.1707" transform="matrix(0.914135 0.40541 0.405455 -0.914115 312.727 228.156)" fill="#212121" fill-opacity="0.49"/>
<rect width="0.2119" height="10.1707" transform="matrix(0.914135 0.40541 0.405455 -0.914115 302.07 252.164)" fill="#212121" fill-opacity="0.49"/>
<rect width="0.211889" height="10.1712" transform="matrix(-0.328828 0.94439 0.944403 0.328789 317.188 238.141)" fill="#212121" fill-opacity="0.49"/>
<rect width="0.211889" height="10.1712" transform="matrix(-0.328828 0.94439 0.944403 0.328789 292.367 229.492)" fill="#212121" fill-opacity="0.49"/>
<rect width="0.2119" height="10.1707" transform="matrix(0.944394 0.328815 0.328853 -0.944381 312.086 227.938)" fill="#212121" fill-opacity="0.49"/>
<rect width="0.2119" height="10.1707" transform="matrix(0.944394 0.328815 0.328853 -0.944381 303.438 252.758)" fill="#212121" fill-opacity="0.49"/>
<rect width="0.211889" height="10.1712" transform="matrix(-0.249994 0.968247 0.968255 0.249963 317.406 237.484)" fill="#212121" fill-opacity="0.49"/>
<rect width="0.211889" height="10.1712" transform="matrix(-0.249994 0.968247 0.968255 0.249963 291.977 230.914)" fill="#212121" fill-opacity="0.49"/>
<rect width="0.211901" height="10.1707" transform="matrix(0.968248 0.249989 0.25002 -0.96824 311.492 227.734)" fill="#212121" fill-opacity="0.49"/>
<rect width="0.211901" height="10.1707" transform="matrix(0.968248 0.249989 0.25002 -0.96824 304.906 253.188)" fill="#212121" fill-opacity="0.49"/>
<rect width="0.211888" height="10.1713" transform="matrix(-0.169463 0.985536 0.98554 0.169442 317.531 236.844)" fill="#212121" fill-opacity="0.49"/>
<rect width="0.211888" height="10.1713" transform="matrix(-0.169463 0.985536 0.98554 0.169442 291.641 232.383)" fill="#212121" fill-opacity="0.49"/>
<rect width="0.211901" height="10.1706" transform="matrix(0.985535 0.169468 0.16949 -0.985532 310.828 227.609)" fill="#212121" fill-opacity="0.49"/>
<rect width="0.211901" height="10.1706" transform="matrix(0.985535 0.169468 0.16949 -0.985532 306.367 253.5)" fill="#212121" fill-opacity="0.49"/>
<rect width="0.211888" height="10.1713" transform="matrix(-0.0877831 0.996139 0.99614 0.0877717 317.602 236.195)" fill="#212121" fill-opacity="0.49"/>
<rect width="0.211888" height="10.1713" transform="matrix(-0.0877831 0.996139 0.99614 0.0877717 291.43 233.875)" fill="#212121" fill-opacity="0.49"/>
<rect width="0.211902" height="10.1706" transform="matrix(0.996138 0.0877986 0.08781 -0.996137 310.188 227.57)" fill="#212121" fill-opacity="0.49"/>
<rect width="0.211902" height="10.1706" transform="matrix(0.996138 0.0877986 0.08781 -0.996137 307.867 253.742)" fill="#212121" fill-opacity="0.49"/>
<ellipse cx="2.99639" cy="2.9962" rx="2.99639" ry="2.9962" transform="matrix(-1 0 0 1 317.297 226.672)" fill="white"/>
<ellipse cx="1.9976" cy="1.99746" rx="1.9976" ry="1.99746" transform="matrix(-1 0 0 1 306.07 239.406)" fill="white"/>
<path d="M384.531 295.383C384.365 295.54 384.187 295.697 384.016 295.866C384.194 295.697 384.365 295.54 384.531 295.383Z" fill="#222222"/>
<path d="M384.675 295.25C382.86 302.069 379.059 315.258 376.231 317.853C375.643 318.389 374.814 319.083 373.758 319.849V319.839L374.683 303.646C374.748 303.594 374.819 303.551 374.885 303.499C375.288 303.205 375.679 302.922 376.065 302.627C377.239 301.734 378.343 300.851 379.38 299.969C379.742 299.665 380.097 299.37 380.441 299.066C381.752 297.93 382.944 296.849 384.017 295.86C384.189 295.692 384.367 295.534 384.533 295.377C384.58 295.334 384.627 295.292 384.675 295.25Z" fill="white"/>
<path d="M374.453 303.824C374.537 303.772 374.619 303.708 374.697 303.656L373.772 319.849V319.859C372.147 321.037 369.994 322.412 367.391 323.705L368.031 307.827C368.891 307.375 369.727 306.892 370.54 306.398C370.842 306.219 371.144 306.041 371.435 305.851C371.536 305.788 371.637 305.726 371.738 305.662C372.253 305.336 372.757 305 373.244 304.664C373.369 304.58 373.493 304.495 373.612 304.411C373.896 304.223 374.18 304.023 374.453 303.824Z" fill="white"/>
<path d="M371.742 305.663C372.252 305.337 372.756 305 373.248 304.664C372.762 305 372.258 305.337 371.742 305.663Z" fill="white"/>
<path d="M370.516 306.391C370.818 306.212 371.115 306.033 371.411 305.844C371.12 306.033 370.818 306.212 370.516 306.391Z" fill="white"/>
<path d="M370.791 352.57C370.613 352.823 370.436 353.054 370.258 353.285C370.435 353.042 370.613 352.811 370.791 352.57Z" fill="#222222"/>
<path d="M368.358 355.61C368.322 355.652 368.286 355.694 368.245 355.748C367.835 356.221 367.414 356.693 366.988 357.156C366.887 357.261 366.78 357.365 366.68 357.482C365.452 358.775 364.171 359.972 362.843 361.054C362.83 361.064 362.819 361.064 362.807 361.086C361.853 361.854 360.88 362.557 359.878 363.199C359.623 363.366 359.368 363.525 359.107 363.672C358.852 363.829 358.591 363.976 358.331 364.124C358.07 364.271 357.808 364.408 357.548 364.544C356.747 364.964 355.934 365.332 355.104 365.658C354.339 365.952 353.556 366.215 352.768 366.446C352.714 366.456 352.655 366.477 352.602 366.488C352.317 366.561 352.032 366.635 351.748 366.698C351.516 366.75 351.279 366.804 351.048 366.845C350.117 367.045 349.168 367.182 348.202 367.245C347.899 367.277 347.591 367.287 347.289 367.297C346.986 367.307 346.684 367.319 346.376 367.319C345.51 367.319 344.632 367.277 343.737 367.182C343.263 367.13 342.788 367.056 342.32 366.961C342.094 366.919 341.869 366.867 341.644 366.804C341.412 366.752 341.187 366.688 340.956 366.615C340.73 366.551 340.505 366.477 340.28 366.394C340.143 366.352 340.013 366.3 339.877 366.247C339.699 366.183 339.521 366.109 339.343 366.036C338.815 365.815 338.294 365.563 337.772 365.28C337.6 365.196 337.428 365.091 337.262 364.995C337.09 364.9 336.918 364.796 336.752 364.691C336.076 364.271 335.406 363.808 334.753 363.294C334.588 363.168 334.427 363.041 334.267 362.905C332.974 361.845 331.729 360.615 330.525 359.228C330.419 359.103 330.306 358.976 330.199 358.85C328.224 356.528 326.386 353.806 324.672 350.8C327.311 347.469 331.266 343.76 335.655 343.896C343.512 344.137 346.198 352.103 346.198 352.103C346.198 352.103 355.022 332.968 363.354 339.829C366.657 342.551 369.071 347.531 370.779 352.565C370.601 352.806 370.423 353.037 370.245 353.28C370.216 353.311 370.186 353.353 370.163 353.395C369.753 353.91 369.344 354.435 368.929 354.939C368.737 355.159 368.553 355.39 368.358 355.61Z" fill="#111111"/>
<path d="M368.938 354.943C369.353 354.438 369.762 353.912 370.171 353.398C369.767 353.924 369.358 354.438 368.938 354.943Z" fill="#222222"/>
<path d="M366.688 308.507C367.032 308.339 367.369 308.161 367.702 307.992C367.363 308.171 367.031 308.34 366.688 308.507Z" fill="white"/>
<path d="M366.992 357.174C367.419 356.711 367.84 356.239 368.249 355.766C367.84 356.249 367.419 356.721 366.992 357.174Z" fill="#222222"/>
<path d="M365.414 309.091C365.841 308.902 366.256 308.703 366.671 308.492C366.262 308.703 365.841 308.902 365.414 309.091Z" fill="white"/>
<path d="M362.898 310.184C363.266 310.047 363.634 309.9 363.989 309.742C363.628 309.901 363.266 310.048 362.898 310.184Z" fill="white"/>
<path d="M362.859 361.064C364.187 359.982 365.469 358.784 366.696 357.492C365.468 358.794 364.193 359.992 362.859 361.064Z" fill="#222222"/>
<path d="M361.243 310.787C361.806 310.598 362.352 310.399 362.891 310.178C363.259 310.041 363.621 309.894 363.982 309.736C364.066 309.704 364.142 309.673 364.214 309.641C364.629 309.462 365.032 309.283 365.435 309.094C365.862 308.905 366.284 308.706 366.692 308.495C367.036 308.326 367.368 308.159 367.707 307.98C367.814 307.928 367.92 307.875 368.021 307.812L367.38 323.69C365.311 324.721 362.951 325.708 360.359 326.506L361.243 310.797V310.787Z" fill="white"/>
<path d="M359.883 363.214C360.885 362.573 361.857 361.869 362.812 361.102C361.863 361.869 360.885 362.573 359.883 363.214Z" fill="#222222"/>
<path d="M360.485 311.055C360.189 311.16 359.886 311.254 359.578 311.338C359.887 311.255 360.189 311.16 360.485 311.055Z" fill="#222222"/>
<path d="M358.352 364.139C358.612 363.992 358.874 363.845 359.128 363.688C358.873 363.855 358.612 364.002 358.352 364.139Z" fill="#222222"/>
<path d="M357.211 311.985C357.656 311.879 358.089 311.764 358.522 311.648C358.089 311.774 357.65 311.879 357.211 311.985Z" fill="white"/>
<path d="M357.562 364.561C357.823 364.424 358.085 364.288 358.345 364.141C358.084 364.288 357.823 364.435 357.562 364.561Z" fill="#222222"/>
<path d="M354.695 312.494C355.051 312.442 355.407 312.378 355.763 312.305C355.413 312.378 355.051 312.44 354.695 312.494Z" fill="white"/>
<path d="M353.93 312.622C354.108 312.601 354.285 312.569 354.458 312.539C354.279 312.571 354.108 312.602 353.93 312.622Z" fill="#222222"/>
<path d="M352.789 366.46C353.578 366.229 354.361 365.966 355.126 365.672C354.361 365.976 353.584 366.229 352.789 366.46Z" fill="#222222"/>
<path d="M352.628 312.808C353.067 312.767 353.5 312.703 353.926 312.63C354.105 312.608 354.276 312.576 354.454 312.546C354.525 312.536 354.602 312.524 354.673 312.504C355.029 312.452 355.391 312.388 355.741 312.315C356.239 312.221 356.731 312.116 357.211 311.989C357.65 311.883 358.089 311.778 358.522 311.653C358.877 311.557 359.227 311.463 359.571 311.348C359.88 311.264 360.182 311.169 360.478 311.065C360.733 310.991 360.988 310.908 361.232 310.812V310.823L360.348 326.532C357.911 327.288 355.26 327.877 352.438 328.192L352.627 312.817V312.808H352.628Z" fill="white"/>
<path d="M352.616 312.781C352.159 312.845 351.703 312.887 351.234 312.928C351.703 312.887 352.16 312.833 352.616 312.781Z" fill="white"/>
<path d="M351.766 366.695C352.05 366.632 352.335 366.558 352.62 366.484C352.335 366.558 352.057 366.632 351.766 366.695Z" fill="#222222"/>
<path d="M351.062 366.85C351.294 366.808 351.531 366.756 351.762 366.703C351.531 366.765 351.3 366.808 351.062 366.85Z" fill="#222222"/>
<path d="M349.094 313.055C349.372 313.055 349.651 313.045 349.93 313.023C349.651 313.035 349.372 313.055 349.094 313.055Z" fill="#222222"/>
<path d="M347.297 367.302C347.599 367.292 347.907 367.28 348.21 367.25C347.907 367.28 347.605 367.29 347.297 367.302Z" fill="#222222"/>
<path d="M346.375 367.318C346.683 367.318 346.986 367.308 347.288 367.297C346.986 367.308 346.684 367.318 346.375 367.318Z" fill="#222222"/>
<path d="M346.526 313.065C347.398 313.097 348.252 313.097 349.093 313.065C349.372 313.065 349.651 313.045 349.93 313.033C350.38 313.012 350.825 312.981 351.258 312.95C351.726 312.908 352.183 312.866 352.64 312.802V312.813L352.45 328.187C349.746 328.491 346.882 328.543 343.887 328.25L343.406 312.719C343.441 312.719 343.477 312.729 343.513 312.729C343.691 312.771 343.874 312.802 344.058 312.823C344.325 312.865 344.592 312.907 344.865 312.938C345.002 312.948 345.144 312.97 345.286 312.98C345.452 313 345.618 313.012 345.784 313.022C346.028 313.045 346.276 313.055 346.526 313.065Z" fill="white"/>
<path d="M344.062 312.828C344.329 312.87 344.602 312.912 344.869 312.944C344.596 312.913 344.329 312.871 344.062 312.828Z" fill="#222222"/>
<path d="M343.413 312.708L343.894 328.24C342.376 328.092 340.828 327.851 339.244 327.504C337.702 327.167 336.261 326.757 334.903 326.285L334.055 309.062C334.203 309.146 334.351 309.23 334.499 309.305C335.015 309.599 335.531 309.872 336.047 310.125C336.249 310.23 336.457 310.335 336.658 310.429C338.064 311.102 339.493 311.669 340.94 312.09C341.166 312.174 341.397 312.237 341.622 312.289C342.079 312.415 342.535 312.53 342.998 312.626C343.134 312.655 343.27 312.676 343.413 312.708Z" fill="white"/>
<path d="M343.506 312.727C343.471 312.727 343.435 312.717 343.4 312.717C343.257 312.685 343.121 312.663 342.984 312.633C343.156 312.663 343.328 312.695 343.506 312.727Z" fill="white"/>
<path d="M341.648 366.812C341.874 366.876 342.099 366.928 342.324 366.97C342.099 366.928 341.868 366.875 341.648 366.812Z" fill="#222222"/>
<path d="M340.93 312.086C341.155 312.16 341.381 312.233 341.612 312.285C341.386 312.233 341.155 312.17 340.93 312.086Z" fill="#222222"/>
<path d="M340.273 366.398C340.499 366.482 340.725 366.556 340.949 366.619C340.724 366.556 340.499 366.482 340.273 366.398Z" fill="#222222"/>
<path d="M339.352 366.047C339.53 366.12 339.707 366.194 339.885 366.257C339.708 366.194 339.53 366.12 339.352 366.047Z" fill="#C91C18"/>
<path d="M337.273 365C337.439 365.095 337.612 365.199 337.783 365.284C337.611 365.2 337.445 365.105 337.273 365Z" fill="#C91C18"/>
<path d="M336.75 364.688C336.916 364.793 337.088 364.897 337.26 364.992C337.088 364.898 336.922 364.793 336.75 364.688Z" fill="#C91C18"/>
<path d="M334.041 309.072L334.889 326.295C331.877 325.264 329.309 323.919 327.109 322.428L326.023 303.398C326.391 303.703 326.759 303.997 327.127 304.292C327.358 304.481 327.589 304.66 327.826 304.839C328.063 305.028 328.3 305.217 328.538 305.386C328.775 305.575 329.019 305.754 329.256 305.921C329.736 306.278 330.228 306.625 330.72 306.962C330.987 307.151 331.254 307.33 331.521 307.508C331.966 307.803 332.417 308.097 332.873 308.37C333.157 308.549 333.436 308.716 333.721 308.885C333.827 308.946 333.934 309.008 334.041 309.072Z" fill="white"/>
<path d="M334.273 362.922C334.434 363.059 334.594 363.185 334.76 363.31C334.6 363.185 334.434 363.059 334.273 362.922Z" fill="#C91C18"/>
<path d="M334.055 309.062C334.203 309.146 334.351 309.231 334.499 309.315C334.351 309.241 334.203 309.158 334.055 309.073V309.062Z" fill="#222222"/>
<path d="M334.047 309.046V309.056C333.94 308.993 333.834 308.931 333.727 308.867C333.834 308.931 333.941 308.983 334.047 309.046Z" fill="#222222"/>
<path d="M331.523 307.508C331.968 307.802 332.419 308.085 332.875 308.369C332.419 308.097 331.968 307.802 331.523 307.508Z" fill="#222222"/>
<path d="M330.203 358.852C330.31 358.977 330.423 359.104 330.529 359.23C330.423 359.114 330.316 358.987 330.203 358.852Z" fill="#C91C18"/>
<path d="M329.242 305.914C329.728 306.271 330.215 306.618 330.707 306.955C330.215 306.618 329.723 306.271 329.242 305.914Z" fill="#222222"/>
<path d="M327.844 304.836C328.081 305.025 328.318 305.204 328.556 305.383C328.318 305.214 328.081 305.025 327.844 304.836Z" fill="#222222"/>
<path d="M327.117 304.289C327.348 304.468 327.58 304.657 327.817 304.836C327.58 304.657 327.348 304.478 327.117 304.289Z" fill="#222222"/>
<path d="M326.032 303.392L327.117 322.422C324.68 320.761 322.699 318.912 321.098 317.052V317.042L320.25 298.211C320.517 298.453 320.789 298.716 321.062 298.967C321.104 299.009 321.151 299.062 321.199 299.093C321.608 299.481 322.023 299.871 322.45 300.259C322.877 300.647 323.304 301.037 323.743 301.425C324.49 302.089 325.255 302.741 326.032 303.392Z" fill="white"/>
<path d="M322.438 300.266C322.864 300.654 323.292 301.043 323.73 301.432C323.292 301.043 322.864 300.655 322.438 300.266Z" fill="#222222"/>
<path d="M321.188 299.102C321.597 299.49 322.018 299.879 322.439 300.268C322.012 299.879 321.597 299.491 321.188 299.102Z" fill="#222222"/>
<path d="M321.094 317.057C316.943 312.244 315.3 307.401 314.659 305.793C313.966 304.038 311.807 295.484 310.117 288.602C310.206 288.665 310.301 288.727 310.39 288.801C310.574 288.926 310.764 289.074 310.96 289.242C310.965 289.242 310.971 289.253 310.983 289.264C311.138 289.39 311.298 289.527 311.47 289.674C311.63 289.811 311.796 289.958 311.962 290.105C312.08 290.211 312.193 290.316 312.311 290.431C312.43 290.537 312.555 290.652 312.673 290.768C313.42 291.472 314.233 292.27 315.111 293.143C315.544 293.573 315.988 294.015 316.457 294.478C316.86 294.888 317.275 295.298 317.702 295.718C317.88 295.907 318.064 296.086 318.254 296.265C318.301 296.317 318.354 296.37 318.408 296.422C318.912 296.915 319.434 297.431 319.967 297.946C320.062 298.03 320.157 298.113 320.246 298.209V298.219L321.094 317.049L321.094 317.057Z" fill="white"/>
<path d="M320.25 298.188C320.517 298.44 320.789 298.693 321.062 298.955C320.789 298.703 320.516 298.44 320.25 298.199V298.188Z" fill="#222222"/>
<path d="M319.973 297.938C319.44 297.423 318.918 296.908 318.414 296.414C318.918 296.909 319.44 297.413 319.973 297.938Z" fill="#222222"/>
<path d="M317.688 295.711C317.871 295.89 318.055 296.068 318.239 296.258C318.05 296.079 317.866 295.9 317.688 295.711Z" fill="#222222"/>
<path d="M315.109 293.133C315.542 293.563 315.993 294.005 316.455 294.468C315.987 294.005 315.542 293.563 315.109 293.133Z" fill="#222222"/>
<path d="M312.667 290.774C312.548 290.658 312.423 290.543 312.305 290.438C312.423 290.543 312.542 290.648 312.667 290.774Z" fill="#222222"/>
<path d="M311.969 290.103C311.803 289.956 311.637 289.809 311.477 289.672C311.637 289.809 311.797 289.956 311.969 290.103Z" fill="white"/>
<path d="M310.992 289.258C311.152 289.383 311.313 289.52 311.478 289.668C311.306 289.52 311.147 289.383 310.992 289.258Z" fill="#222222"/>
<path d="M352.439 328.185C355.262 327.87 357.912 327.282 360.35 326.525C362.941 325.727 365.302 324.739 367.371 323.71C369.974 322.418 372.127 321.041 373.752 319.863C374.808 319.096 375.638 318.403 376.225 317.867C379.053 315.273 382.855 302.085 384.67 295.264C387.937 292.248 389.971 290.389 390.73 291.482C392.385 293.867 386.591 331.202 370.781 352.576C369.073 347.542 366.66 342.562 363.356 339.84C355.025 332.978 346.201 352.114 346.201 352.114C346.201 352.114 343.514 344.149 335.657 343.907C331.269 343.77 327.313 347.48 324.674 350.811H324.669C311.61 327.955 306.202 289.285 308.129 288.035C308.556 287.762 309.226 287.993 310.109 288.603C311.799 295.485 313.958 304.039 314.652 305.794C315.292 307.401 316.935 312.246 321.086 317.058C322.687 318.918 324.668 320.767 327.105 322.428C329.305 323.92 331.873 325.265 334.885 326.294C336.243 326.766 337.684 327.176 339.226 327.513C340.809 327.859 342.357 328.101 343.876 328.248C346.871 328.542 349.735 328.49 352.439 328.185Z" fill="#222222"/>
<path d="M324.078 361.891C324.078 361.891 343.583 395.853 368.916 364.234" stroke="white" stroke-width="1.5" stroke-miterlimit="10" stroke-linecap="round" stroke-linejoin="round"/>
<path d="M405.001 199.15C404.326 205.837 396.156 198.257 385.245 197.156C374.334 196.055 364.814 201.849 365.489 195.162C366.164 188.476 375.556 183.947 386.467 185.048C397.378 186.149 405.676 192.463 405.001 199.15Z" fill="#212121"/>
<path d="M332.488 195.95C333.043 202.648 323.629 196.684 312.7 197.59C301.771 198.495 293.466 205.927 292.911 199.229C292.356 192.531 300.766 186.368 311.695 185.462C322.624 184.557 331.933 189.253 332.488 195.95Z" fill="#212121"/>
<path d="M381.102 402.666L403.328 382.885C407.653 379.035 412.305 375.569 417.23 372.524L441.456 357.549L440.627 370.143L417.497 384.56C410.369 389.002 403.728 394.18 397.682 400.009L380.165 416.898L381.102 402.666Z" fill="#212121"/>
<path d="M315.954 411.732L288.357 384.991L257.482 360.642L258.954 373.858L285.397 394.555L309.433 418.765L315.954 411.732Z" fill="#212121"/>
<path d="M347.383 500.477V519.15" stroke="#9B9596" stroke-width="3" stroke-dasharray="2 2"/>
<path d="M382.289 414.324H436.274V446.625L436.268 447.562C435.765 487.193 403.484 519.165 363.734 519.165H335.712C295.649 519.165 263.172 454.387 263.172 414.324H308.997V388.086H382.289V414.324Z" fill="#212121"/>
<path d="M292.593 424.367V424.905H293.045V425.867H294.093V425.982H292.593V426.521C292.593 426.832 292.586 427.142 292.574 427.45L294.07 427.508C294.045 428.171 293.994 428.827 293.918 429.476L292.431 429.303C292.358 429.921 292.262 430.533 292.143 431.136L293.612 431.426C293.484 432.075 293.331 432.715 293.153 433.346L291.711 432.94C291.543 433.538 291.351 434.126 291.138 434.704L292.544 435.223C292.315 435.843 292.062 436.451 291.787 437.047L290.427 436.419C290.167 436.982 289.885 437.533 289.583 438.071L290.889 438.805C290.566 439.38 290.222 439.941 289.856 440.487L288.611 439.653C288.266 440.168 287.902 440.67 287.519 441.155L288.695 442.083C288.287 442.6 287.859 443.1 287.412 443.583L286.312 442.566C285.892 443.021 285.454 443.459 284.999 443.88L286.017 444.979C285.534 445.426 285.034 445.855 284.517 446.263L283.588 445.086C283.103 445.469 282.602 445.834 282.087 446.179L282.92 447.424C282.374 447.789 281.813 448.133 281.238 448.456L280.505 447.15C279.967 447.453 279.415 447.734 278.852 447.994L279.479 449.354C278.883 449.629 278.275 449.882 277.655 450.111L277.138 448.705C276.56 448.918 275.971 449.109 275.373 449.277L275.778 450.721C275.148 450.898 274.508 451.05 273.858 451.179L273.568 449.71C272.965 449.829 272.354 449.926 271.735 449.998L271.909 451.485C271.428 451.542 270.942 451.584 270.453 451.613V450.685H269.904L269.884 450.142C269.575 450.154 269.265 450.159 268.953 450.159V448.735H270.453V446.786H268.953V444.837H270.453V442.887H268.953V440.938H270.453V438.988H268.953V437.039H270.453V435.089H268.953V433.14H270.453V431.19H268.953V429.241H270.453V427.291H268.953V425.867H270.001V425.342H270.453V424.367H272.096V425.867H274.19V424.367H276.285V425.867H278.38V424.367H280.476V425.867H282.57V424.367H284.665V425.867H286.76V424.367H288.855V425.867H290.95V424.367H292.593Z" fill="#212121" stroke="#9B9596" stroke-width="3" stroke-dasharray="2 2"/>
<path d="M367.291 403.531V404.631H367.795V405.031H368.791V406.83H367.291V409.029H368.791V411.229H367.291V413.429H368.791V415.628H367.291V417.827H368.791V420.026H367.291V421.126C367.291 421.425 367.284 421.723 367.271 422.019L368.769 422.082C368.741 422.724 368.686 423.359 368.604 423.986L367.118 423.793C367.041 424.386 366.939 424.971 366.812 425.547L368.273 425.869C368.135 426.495 367.972 427.111 367.781 427.715L366.352 427.265C366.172 427.833 365.97 428.392 365.743 428.938L367.127 429.511C366.882 430.102 366.611 430.68 366.317 431.243L364.989 430.55C364.714 431.077 364.416 431.591 364.098 432.091L365.361 432.897C365.018 433.435 364.65 433.956 364.263 434.461L363.075 433.549C362.713 434.02 362.331 434.476 361.93 434.913L363.034 435.926C362.604 436.395 362.152 436.846 361.683 437.276L360.67 436.172C360.232 436.573 359.778 436.956 359.307 437.318L360.219 438.505C359.714 438.893 359.193 439.261 358.655 439.604L357.849 438.341C357.349 438.66 356.835 438.957 356.308 439.232L357 440.561C356.437 440.854 355.859 441.124 355.269 441.369L354.695 439.985C354.149 440.212 353.591 440.415 353.022 440.594L353.473 442.023C352.868 442.214 352.252 442.378 351.626 442.517L351.304 441.054C350.728 441.181 350.144 441.283 349.551 441.36L349.744 442.847C349.117 442.928 348.482 442.983 347.839 443.011L347.775 441.515C347.48 441.527 347.183 441.533 346.884 441.533C346.585 441.533 346.287 441.527 345.991 441.515L345.927 443.011C345.284 442.983 344.649 442.928 344.022 442.847L344.217 441.36C343.624 441.283 343.039 441.181 342.464 441.054L342.14 442.517C341.514 442.378 340.898 442.214 340.294 442.023L340.745 440.594C340.177 440.415 339.618 440.212 339.072 439.985L338.498 441.369C337.907 441.124 337.329 440.855 336.766 440.561L337.46 439.232C336.933 438.957 336.418 438.66 335.919 438.341L335.111 439.604C334.573 439.26 334.052 438.893 333.548 438.505L334.461 437.318C333.99 436.956 333.534 436.573 333.097 436.172L332.084 437.276C331.614 436.846 331.163 436.395 330.732 435.926L331.838 434.913C331.437 434.476 331.054 434.02 330.692 433.549L329.504 434.461C329.116 433.956 328.749 433.435 328.405 432.897L329.669 432.091C329.35 431.592 329.052 431.077 328.777 430.55L327.449 431.243C327.155 430.68 326.885 430.102 326.64 429.511L328.024 428.938C327.798 428.392 327.595 427.833 327.416 427.265L325.985 427.715C325.795 427.11 325.63 426.495 325.492 425.869L326.956 425.547C326.829 424.971 326.727 424.386 326.649 423.793L325.162 423.986C325.08 423.359 325.026 422.724 324.998 422.082L326.496 422.019C326.483 421.723 326.477 421.425 326.477 421.126V420.026H324.977V417.827H326.477V415.628H324.977V413.429H326.477V411.229H324.977V409.029H326.477V406.83H324.977V405.031H325.973V404.631H326.477V403.531H327.964V405.031H329.955V403.531H331.947V405.031H333.938V403.531H335.93V405.031H337.922V403.531H339.913V405.031H341.904V403.531H343.896V405.031H345.888V403.531H347.88V405.031H349.871V403.531H351.862V405.031H353.854V403.531H355.846V405.031H357.837V403.531H359.829V405.031H361.82V403.531H363.812V405.031H365.804V403.531H367.291Z" fill="#212121" stroke="#9B9596" stroke-width="3" stroke-dasharray="2 2"/>
<path d="M409.071 424.367V424.905H408.619V425.867H407.571V425.982H409.071V426.521C409.071 426.832 409.078 427.142 409.09 427.45L407.594 427.508C407.619 428.171 407.67 428.827 407.746 429.476L409.233 429.303C409.306 429.921 409.402 430.533 409.521 431.136L408.052 431.426C408.18 432.075 408.333 432.715 408.511 433.346L409.953 432.94C410.121 433.538 410.313 434.126 410.526 434.704L409.12 435.223C409.349 435.843 409.602 436.451 409.877 437.047L411.237 436.419C411.497 436.982 411.779 437.533 412.081 438.071L410.775 438.805C411.098 439.38 411.442 439.941 411.808 440.487L413.053 439.653C413.398 440.168 413.762 440.67 414.146 441.155L412.969 442.083C413.377 442.6 413.805 443.1 414.252 443.583L415.352 442.566C415.772 443.021 416.21 443.459 416.665 443.88L415.647 444.979C416.13 445.426 416.63 445.855 417.147 446.263L418.076 445.086C418.562 445.469 419.062 445.834 419.577 446.179L418.744 447.424C419.29 447.789 419.851 448.133 420.426 448.456L421.159 447.15C421.698 447.453 422.249 447.734 422.812 447.994L422.185 449.354C422.781 449.629 423.389 449.882 424.009 450.111L424.526 448.705C425.104 448.918 425.693 449.109 426.291 449.277L425.886 450.721C426.516 450.898 427.156 451.05 427.806 451.179L428.096 449.71C428.699 449.829 429.31 449.926 429.929 449.998L429.755 451.485C430.236 451.542 430.722 451.584 431.211 451.613V450.685H431.76L431.78 450.142C432.089 450.154 432.399 450.159 432.711 450.159V448.735H431.211V446.786H432.711V444.837H431.211V442.887H432.711V440.938H431.211V438.988H432.711V437.039H431.211V435.089H432.711V433.14H431.211V431.19H432.711V429.241H431.211V427.291H432.711V425.867H431.663V425.342H431.211V424.367H429.568V425.867H427.474V424.367H425.379V425.867H423.284V424.367H421.188V425.867H419.094V424.367H416.999V425.867H414.904V424.367H412.809V425.867H410.714V424.367H409.071Z" fill="#212121" stroke="#9B9596" stroke-width="3" stroke-dasharray="2 2"/>
<path d="M258.188 362.242L287.492 385.225L312.158 411.58L306.34 415.097L286.2 393.485L259.267 373.016" stroke="#9B9596" stroke-dasharray="2 2"/>
<path d="M363.251 430.249C363.275 430.273 363.275 430.297 363.275 430.321C363.251 430.345 363.227 430.345 363.203 430.345C361.787 429.577 360.323 428.977 358.859 428.329C357.395 427.729 355.907 427.105 354.443 426.529C351.467 425.353 348.491 424.249 345.467 423.241C345.131 423.121 344.795 423.001 344.483 422.905C344.027 423.049 343.571 423.169 343.091 423.289C343.067 423.817 343.043 424.345 343.019 424.873C343.019 424.897 342.995 424.921 342.947 424.921C342.923 424.921 342.923 424.897 342.899 424.873C342.827 424.393 342.779 423.889 342.731 423.385C342.059 423.529 341.387 423.673 340.691 423.745C340.283 423.793 339.875 423.817 339.443 423.793C339.011 423.793 338.579 423.721 338.195 423.601C337.787 423.505 337.355 423.361 336.971 423.121C336.779 423.001 336.587 422.833 336.443 422.617C336.275 422.377 336.203 422.041 336.299 421.777C336.443 421.201 336.923 420.889 337.379 420.745C337.499 420.721 337.619 420.697 337.739 420.697L337.907 420.673H338.075C338.291 420.697 338.483 420.721 338.699 420.745C339.515 420.841 340.307 421.057 341.075 421.249C341.603 421.417 342.131 421.561 342.659 421.729C342.635 421.033 342.659 420.313 342.707 419.617C342.755 418.729 342.779 417.817 343.043 416.977C343.283 416.113 343.619 415.273 344.195 414.553C344.219 414.529 344.243 414.529 344.267 414.553C344.291 414.553 344.291 414.577 344.291 414.577V414.601C344.291 415.489 344.171 416.353 344.075 417.193C343.955 418.057 343.691 418.873 343.547 419.713C343.403 420.433 343.307 421.177 343.235 421.921C343.499 421.993 343.763 422.089 344.027 422.185C344.411 422.065 344.771 421.945 345.131 421.801C346.619 421.249 348.059 420.625 349.451 419.881C350.843 419.161 352.187 418.345 353.411 417.385C354.011 416.905 354.587 416.377 355.067 415.825C355.523 415.273 355.907 414.601 355.883 414.049C355.883 413.497 355.475 413.065 354.803 412.825C354.155 412.585 353.387 412.513 352.619 412.465C351.083 412.417 349.523 412.561 347.963 412.777C346.379 412.993 344.843 413.281 343.283 413.593C341.723 413.905 340.163 414.265 338.627 414.625C337.067 415.009 335.531 415.417 333.995 415.825C333.947 415.825 333.923 415.801 333.923 415.777C333.923 415.753 333.923 415.729 333.947 415.705C336.947 414.601 339.995 413.665 343.115 412.873C344.651 412.465 346.235 412.153 347.819 411.865C349.403 411.601 351.011 411.409 352.667 411.409C353.483 411.457 354.323 411.505 355.187 411.817C355.595 411.985 356.051 412.201 356.411 412.585C356.483 412.681 356.579 412.777 356.651 412.897C356.675 412.945 356.699 412.993 356.747 413.065C356.771 413.137 356.795 413.185 356.819 413.257C356.915 413.497 356.987 413.761 356.987 414.025C357.011 414.553 356.843 415.033 356.627 415.441C356.411 415.825 356.171 416.185 355.883 416.521C355.331 417.169 354.683 417.697 354.035 418.201C352.739 419.185 351.323 420.001 349.883 420.721C348.443 421.441 346.931 422.065 345.419 422.593C345.395 422.617 345.371 422.617 345.323 422.617C345.443 422.665 345.539 422.689 345.635 422.737C348.659 423.817 351.611 424.993 354.563 426.241C356.027 426.865 357.491 427.489 358.955 428.137C360.395 428.809 361.859 429.457 363.251 430.249ZM340.595 422.977C341.291 422.905 341.987 422.737 342.683 422.569C342.683 422.497 342.659 422.425 342.659 422.329C342.083 422.161 341.507 421.993 340.907 421.849C340.139 421.657 339.371 421.465 338.627 421.369C338.435 421.345 338.243 421.345 338.051 421.345H337.931H337.787C337.715 421.345 337.643 421.369 337.571 421.393C337.259 421.489 336.995 421.705 336.947 421.921C336.899 422.113 337.067 422.353 337.355 422.521C337.643 422.713 338.003 422.809 338.363 422.905C339.083 423.097 339.827 423.073 340.595 422.977Z" fill="white"/>
<path d="M441.331 358.648L409.95 378.435L376.688 407.487L378.842 415.388L409.369 388.095L440.254 369.063" stroke="#9B9596" stroke-dasharray="2 2"/>
<path d="M374.547 391.32V417.894H436.318" stroke="#9B9596" stroke-dasharray="2 2"/>
<path d="M310.617 391.148H380.29" stroke="#9B9596" stroke-width="3" stroke-dasharray="2 2"/>
<path d="M312.773 390.625V417.917H266.086" stroke="#9B9596" stroke-dasharray="2 2"/>
<ellipse cx="310.973" cy="410.363" rx="5.387" ry="5.38664" fill="url(#paint3_radial_744_5311)"/>
<ellipse cx="379.207" cy="411.09" rx="5.387" ry="5.38664" fill="url(#paint4_radial_744_5311)"/>
<path d="M309.933 409.069C309.892 408.997 309.823 408.944 309.742 408.923C309.661 408.901 309.575 408.912 309.503 408.954C309.431 408.996 309.378 409.064 309.356 409.145C309.335 409.226 309.346 409.312 309.388 409.384L310.018 410.475L308.927 411.104C308.855 411.146 308.802 411.215 308.78 411.295C308.759 411.376 308.77 411.462 308.812 411.534C308.853 411.607 308.922 411.659 309.003 411.681C309.084 411.703 309.17 411.691 309.242 411.65L310.332 411.02L310.962 412.111C311.004 412.183 311.073 412.236 311.153 412.257C311.234 412.279 311.32 412.267 311.392 412.226C311.465 412.184 311.517 412.115 311.539 412.035C311.561 411.954 311.549 411.868 311.508 411.796L310.878 410.705L311.968 410.075C312.041 410.034 312.094 409.965 312.115 409.884C312.137 409.804 312.125 409.718 312.084 409.645C312.042 409.573 311.973 409.52 311.893 409.499C311.812 409.477 311.726 409.488 311.654 409.53L310.563 410.16L309.933 409.069Z" fill="#9B9596"/>
<path d="M378.91 409.765C378.868 409.692 378.799 409.639 378.719 409.618C378.638 409.596 378.552 409.608 378.48 409.649C378.407 409.691 378.355 409.76 378.333 409.84C378.311 409.921 378.323 410.007 378.365 410.079L378.994 411.17L377.904 411.8C377.831 411.841 377.778 411.91 377.757 411.991C377.735 412.071 377.747 412.157 377.788 412.23C377.83 412.302 377.899 412.355 377.979 412.376C378.06 412.398 378.146 412.387 378.218 412.345L379.309 411.715L379.939 412.806C379.98 412.878 380.049 412.931 380.13 412.952C380.211 412.974 380.297 412.963 380.369 412.921C380.441 412.879 380.494 412.811 380.516 412.73C380.537 412.649 380.526 412.563 380.484 412.491L379.854 411.4L380.945 410.771C381.017 410.729 381.07 410.66 381.092 410.58C381.113 410.499 381.102 410.413 381.06 410.341C381.019 410.268 380.95 410.216 380.869 410.194C380.788 410.172 380.703 410.184 380.63 410.225L379.54 410.855L378.91 409.765Z" fill="#9B9596"/>
<defs>
<filter id="filter0_d_744_5311" x="160.997" y="541.302" width="353.131" height="87.0219" filterUnits="userSpaceOnUse" color-interpolation-filters="sRGB">
<feFlood flood-opacity="0" result="BackgroundImageFix"/>
<feColorMatrix in="SourceAlpha" type="matrix" values="0 0 0 0 0 0 0 0 0 0 0 0 0 0 0 0 0 0 127 0" result="hardAlpha"/>
<feMorphology radius="9" operator="dilate" in="SourceAlpha" result="effect1_dropShadow_744_5311"/>
<feOffset dy="4"/>
<feGaussianBlur stdDeviation="4.65"/>
<feComposite in2="hardAlpha" operator="out"/>
<feColorMatrix type="matrix" values="0 0 0 0 0.94902 0 0 0 0 0.690196 0 0 0 0 0.301961 0 0 0 1 0"/>
<feBlend mode="normal" in2="BackgroundImageFix" result="effect1_dropShadow_744_5311"/>
<feBlend mode="normal" in="SourceGraphic" in2="effect1_dropShadow_744_5311" result="shape"/>
</filter>
<filter id="filter1_i_744_5311" x="245.695" y="129.898" width="215.637" height="355.817" filterUnits="userSpaceOnUse" color-interpolation-filters="sRGB">
<feFlood flood-opacity="0" result="BackgroundImageFix"/>
<feBlend mode="normal" in="SourceGraphic" in2="BackgroundImageFix" result="shape"/>
<feColorMatrix in="SourceAlpha" type="matrix" values="0 0 0 0 0 0 0 0 0 0 0 0 0 0 0 0 0 0 127 0" result="hardAlpha"/>
<feOffset dx="16" dy="20"/>
<feGaussianBlur stdDeviation="4.1"/>
<feComposite in2="hardAlpha" operator="arithmetic" k2="-1" k3="1"/>
<feColorMatrix type="matrix" values="0 0 0 0 0.129412 0 0 0 0 0.129412 0 0 0 0 0.129412 0 0 0 0.25 0"/>
<feBlend mode="normal" in2="shape" result="effect1_innerShadow_744_5311"/>
</filter>
<linearGradient id="paint0_linear_744_5311" x1="341" y1="83" x2="341" y2="711" gradientUnits="userSpaceOnUse">
<stop offset="0.538462" stop-color="#D23C8F"/>
<stop offset="0.923077" stop-color="#171543"/>
</linearGradient>
<radialGradient id="paint1_radial_744_5311" cx="0" cy="0" r="1" gradientTransform="matrix(-1.14112 25.5868 -25.5883 -1.14105 18.3099 18.3089)" gradientUnits="userSpaceOnUse">
<stop stop-color="#00F2FF"/>
<stop offset="1" stop-color="#08293A"/>
</radialGradient>
<radialGradient id="paint2_radial_744_5311" cx="0" cy="0" r="1" gradientTransform="matrix(-1.14112 25.5868 -25.5883 -1.14105 18.3099 18.3089)" gradientUnits="userSpaceOnUse">
<stop stop-color="#00F2FF"/>
<stop offset="1" stop-color="#08293A"/>
</radialGradient>
<radialGradient id="paint3_radial_744_5311" cx="0" cy="0" r="1" gradientUnits="userSpaceOnUse" gradientTransform="translate(310.973 410.363) rotate(90) scale(5.38664 5.387)">
<stop offset="0.730769" stop-color="#212121"/>
<stop offset="0.730869" stop-color="#7A808C"/>
</radialGradient>
<radialGradient id="paint4_radial_744_5311" cx="0" cy="0" r="1" gradientUnits="userSpaceOnUse" gradientTransform="translate(379.207 411.09) rotate(90) scale(5.38664 5.387)">
<stop offset="0.730769" stop-color="#212121"/>
<stop offset="0.730869" stop-color="#7A808C"/>
</radialGradient>
</defs>
</svg>
